<?xml version="1.0" encoding="utf-8"?>
<!-- Generator: Adobe Illustrator 19.0.0, SVG Export Plug-In . SVG Version: 6.00 Build 0)  -->
<svg version="1.1" id="Layer_1" xmlns="http://www.w3.org/2000/svg" xmlns:xlink="http://www.w3.org/1999/xlink" x="0px" y="0px"
	 viewBox="0 0 45.4 101.5" style="enable-background:new 0 0 45.4 101.5;" xml:space="preserve">
<style type="text/css">
	.st0{fill:none;stroke:#FFFFFF;stroke-miterlimit:10;}
</style>
<g id="XMLID_648_">
	<path id="XMLID_655_" class="st0" d="M16.2,30.8c0,0,1.4,4.2,6.3,4.2s6.5-4.4,6.5-4.4s15.7,1.3,15.5,27.7l-7.3,1.3
		c0,0,0.2-11.1-2.2-14.5v51c0,0-0.6,4.6-5.9,4.6c-5.3,0-4.5-7.1-4.5-7.1l0.8-21.2h-4.5l0.2,21.2c0,0,1,7.3-4.7,7.3
		c-5.7,0-5.7-7.6-5.7-7.6l0.2-48.3c0,0-2.4,2.9-2.8,14.3l-7.1-1C1,58.3,2,32.7,16.2,30.8z"/>
	<path id="XMLID_654_" class="st0" d="M37.4,61.7l7.3-0.8c0,0,1.4,6.3-3.1,6.3C37.2,67.2,37.4,61.7,37.4,61.7z"/>
	<path id="XMLID_653_" class="st0" d="M0.6,60.2l7.3,1.3c0,0,0,6.3-4.1,5.2C-0.2,65.7,0.6,60.2,0.6,60.2z"/>
	<ellipse id="XMLID_652_" class="st0" cx="22.9" cy="42.4" rx="1.1" ry="1.2"/>
	<ellipse id="XMLID_651_" class="st0" cx="22.9" cy="51.2" rx="1.1" ry="1.2"/>
	<ellipse id="XMLID_650_" class="st0" cx="22.9" cy="60" rx="1.1" ry="1.2"/>
	<ellipse id="XMLID_649_" class="st0" cx="22.7" cy="14.2" rx="13.3" ry="13.7"/>
</g>
</svg>
