<?xml version="1.0" encoding="utf-8"?>
<!-- Generator: Adobe Illustrator 19.0.0, SVG Export Plug-In . SVG Version: 6.00 Build 0)  -->
<svg version="1.1" id="Layer_1" xmlns="http://www.w3.org/2000/svg" xmlns:xlink="http://www.w3.org/1999/xlink" x="0px" y="0px"
	 viewBox="0 0 61.2 130.8" style="enable-background:new 0 0 61.2 130.8;" xml:space="preserve">
<style type="text/css">
	.st0{fill:none;stroke:#FFFFFF;stroke-miterlimit:10;}
	.st1{fill:none;stroke:#FFFFFF;stroke-linecap:round;stroke-miterlimit:10;}
</style>
<g id="XMLID_670_">
	<path id="XMLID_679_" class="st0" d="M48.5,79.3l9.5-1.1c0,0,1.9,8.2-4,8.2C48.2,86.4,48.5,79.3,48.5,79.3z"/>
	<path id="XMLID_678_" class="st0" d="M0.6,77.3l9.5,1.6c0,0,0,8.2-5.3,6.8C-0.5,84.4,0.6,77.3,0.6,77.3z"/>
	<polyline id="XMLID_677_" class="st1" points="4.2,24.5 30.6,0.7 57,24.5 	"/>
	<path id="XMLID_676_" class="st0" d="M45.3,57.7c3.2,4.4,2.9,18.8,2.9,18.8l9.5-1.6c0.3-34.4-20.1-36-20.1-36s-2.1,5.7-8.5,5.7
		c-6.3,0-8.2-5.5-8.2-5.5C2.4,41.6,1.1,74.9,1.1,74.9l9.3,1.4c0.5-14.7,3.7-18.6,3.7-18.6L10,113.2h3.9l0,7.3c0,0,0,9.8,7.4,9.8
		c7.4,0,6.1-9.6,6.1-9.6l-0.1-7.6h4.9l-0.3,7.6c0,0-1.1,9.3,5.8,9.3s7.7-6,7.7-6v-10.9h6L45.3,57.7z"/>
	<path id="XMLID_675_" class="st0" d="M42.9,28.1c0-8-6.3-14.5-14.1-14.5s-14.1,6.5-14.1,14.5c0,4.8,2.3,9.1,5.8,11.8
		c-1.4,3.4-5.7,17.3,8.4,28.1c0,0,17-15.9,8.8-28.8C40.9,36.6,42.9,32.6,42.9,28.1z"/>
	<line id="XMLID_674_" class="st1" x1="48.8" y1="38.1" x2="60.7" y2="38.1"/>
	<line id="XMLID_673_" class="st1" x1="54.7" y1="32" x2="54.7" y2="43.6"/>
	<line id="XMLID_672_" class="st1" x1="3.4" y1="35.2" x2="12.7" y2="35.2"/>
	<line id="XMLID_671_" class="st1" x1="8" y1="30.4" x2="8" y2="39.5"/>
</g>
<path id="XMLID_586_" class="st0" d="M10.8,90.8c0,0,2.8-5-3.4-5s-2.4,43-2.4,43"/>
</svg>
