<?xml version="1.0" encoding="utf-8"?>
<!-- Generator: Adobe Illustrator 19.0.0, SVG Export Plug-In . SVG Version: 6.00 Build 0)  -->
<svg version="1.1" id="Layer_1" xmlns="http://www.w3.org/2000/svg" xmlns:xlink="http://www.w3.org/1999/xlink" x="0px" y="0px"
	 viewBox="0 0 46.1 104.7" style="enable-background:new 0 0 46.1 104.7;" xml:space="preserve">
<style type="text/css">
	.st0{fill:#FFFFFF;}
	.st1{fill:none;stroke:#FFFFFF;stroke-miterlimit:10;}
	.st2{fill:none;stroke:#FFFFFF;stroke-linecap:round;stroke-miterlimit:10;}
</style>
<g id="XMLID_618_">
	<g id="XMLID_622_">
		<g id="Checkmark_2_x40_2x.png_6_">
			<g id="XMLID_83_">
				<path id="XMLID_84_" class="st0" d="M22.9,4.9c3.2,0,6.2,1.4,8.2,3.6l0,0c0.2,0.2,0.6,0.2,0.8,0c0.2-0.2,0.2-0.6,0-0.8
					c0,0,0,0-0.1,0c-2.3-2.4-5.4-3.9-9-3.9c-4.4,0-8.2,2.3-10.5,5.8l0.8,0.8C15.3,7,18.8,4.9,22.9,4.9z M10.8,7.8
					c-0.1-0.1-0.2-0.2-0.4-0.2c-0.3,0-0.6,0.3-0.6,0.6c0,0.2,0.1,0.3,0.2,0.4l1.8,1.8c0.2-0.4,0.4-0.7,0.6-1L10.8,7.8z M22.5,21.2
					c0.1,0.1,0.2,0.2,0.4,0.2c0.2,0,0.3-0.1,0.4-0.2l0,0l9.6-10.3c0,0,0,0,0,0l0.8-0.9c0,0,0,0,0,0l1.6-1.8l0,0
					c0.1-0.1,0.2-0.2,0.2-0.4c0-0.3-0.3-0.6-0.6-0.6c-0.2,0-0.3,0.1-0.4,0.2l0,0L33,9c0,0,0,0,0,0l-0.8,0.9c0,0,0,0,0,0L22.9,20
					l-9.6-9.7c-0.2,0.3-0.4,0.7-0.6,1.1L22.5,21.2z M34.4,11.7c-0.2-0.2-0.6-0.2-0.8,0c-0.2,0.2-0.2,0.4-0.1,0.6l0,0
					c0.5,1.4,0.8,2.8,0.8,4.4c0,6.5-5.1,11.8-11.5,11.8c-6.3,0-11.5-5.3-11.5-11.8c0-1.9,0.5-3.7,1.2-5.3l-0.9-0.9
					c-1,1.8-1.5,4-1.5,6.2c0,7.2,5.6,13,12.6,13c7,0,12.6-5.8,12.6-13c0-1.7-0.3-3.3-0.9-4.7C34.6,11.9,34.5,11.8,34.4,11.7z"/>
			</g>
		</g>
		<path id="XMLID_630_" class="st1" d="M16.5,33c0,0,1.4,4.3,6.4,4.3c5,0,6.6-4.5,6.6-4.5s15.9,1.3,15.7,28.1l-7.4,1.3
			c0,0,0.2-11.3-2.3-14.7v51.8c0,0-0.6,4.7-6,4.7c-5.4,0-4.5-7.2-4.5-7.2l0.8-21.5h-4.5l0.2,21.5c0,0,1,7.5-4.7,7.5
			c-5.8,0-5.8-7.7-5.8-7.7l0.2-49c0,0-2.5,3-2.9,14.5L1,60.9C1,60.9,2,34.9,16.5,33z"/>
		<path id="XMLID_629_" class="st1" d="M37.9,64.3l7.4-0.9c0,0,1.4,6.4-3.1,6.4S37.9,64.3,37.9,64.3z"/>
		<path id="XMLID_628_" class="st1" d="M0.6,62.8L8,64.1c0,0,0,6.4-4.1,5.3S0.6,62.8,0.6,62.8z"/>
		<path id="XMLID_627_" class="st2" d="M6.4,22.4c0,0-3.1-21.9,16.5-21.9s17.3,22.3,17.3,22.3"/>
		<line id="XMLID_626_" class="st2" x1="36.6" y1="5.4" x2="41.3" y2="1.3"/>
		<line id="XMLID_625_" class="st2" x1="9.2" y1="7" x2="5.3" y2="2.9"/>
		<line id="XMLID_624_" class="st1" x1="26.4" y1="35.7" x2="41.7" y2="42.2"/>
		<line id="XMLID_623_" class="st1" x1="19.4" y1="36.5" x2="5.6" y2="41.4"/>
	</g>
	<line id="XMLID_621_" class="st1" x1="14.9" y1="49" x2="30.9" y2="49"/>
	<line id="XMLID_620_" class="st1" x1="14.9" y1="54.2" x2="30.9" y2="54.2"/>
	<line id="XMLID_619_" class="st1" x1="14.9" y1="59.4" x2="30.9" y2="59.4"/>
</g>
</svg>
