<?xml version="1.0" encoding="utf-8"?>
<!-- Generator: Adobe Illustrator 19.0.0, SVG Export Plug-In . SVG Version: 6.00 Build 0)  -->
<svg version="1.1" id="Layer_1" xmlns="http://www.w3.org/2000/svg" xmlns:xlink="http://www.w3.org/1999/xlink" x="0px" y="0px"
	 viewBox="0 0 49.5 75.5" style="enable-background:new 0 0 49.5 75.5;" xml:space="preserve">
<style type="text/css">
	.st0{fill:none;stroke:#FFFFFF;stroke-miterlimit:10;}
</style>
<g id="XMLID_656_">
	<path id="XMLID_660_" class="st0" d="M17.5,28.3h14.5L48.3,43c0,0,1.8,2.7-0.2,4.9c-2,2.3-5.3-1-5.3-1l-8.5-7.6v7.8H15.7v-7.6
		l-8.3,7.4c0,0-3.1,3.2-5.9,0.4c-2.8-2.9,1.1-6.1,1.1-6.1L17.5,28.3z"/>
	<path id="XMLID_659_" class="st0" d="M14.9,51.7l7,6.3l-3.7,3l3.1,8.2c0,0,1.7,4.4-2,5.5c-3.7,1.1-5.7-1.3-6.1-2.1
		c-0.4-0.8-4.4-9.1-4.4-9.1s-2.8-3.6,0.6-6.7C12.7,53.8,14.9,51.7,14.9,51.7z"/>
	<path id="XMLID_658_" class="st0" d="M35,51.7L28,58l3.7,3l-3.1,8.2c0,0-1.7,4.4,2,5.5c3.7,1.1,5.7-1.3,6.1-2.1
		c0.4-0.8,4.4-9.1,4.4-9.1s2.8-3.6-0.6-6.7C37.3,53.8,35,51.7,35,51.7z"/>
	<ellipse id="XMLID_657_" class="st0" cx="25.6" cy="12.9" rx="12" ry="12.4"/>
</g>
</svg>
