<?xml version="1.0" encoding="utf-8"?>
<!-- Generator: Adobe Illustrator 19.0.0, SVG Export Plug-In . SVG Version: 6.00 Build 0)  -->
<svg version="1.1" id="Layer_1" xmlns="http://www.w3.org/2000/svg" xmlns:xlink="http://www.w3.org/1999/xlink" x="0px" y="0px"
	 viewBox="0 0 55.6 121.1" style="enable-background:new 0 0 55.6 121.1;" xml:space="preserve">
<style type="text/css">
	.st0{fill:#FFFFFF;}
	.st1{fill:none;stroke:#FFFFFF;stroke-miterlimit:10;}
	.st2{fill:none;stroke:#FFFFFF;stroke-linecap:round;stroke-miterlimit:10;}
</style>
<g id="XMLID_587_">
	<g id="XMLID_590_">
		<g id="Checkmark_2_x40_2x.png_4_">
			<g id="XMLID_96_">
				<path id="XMLID_97_" class="st0" d="M14,9.1c-0.1-0.1-0.3-0.2-0.5-0.2c-0.4,0-0.6,0.3-0.6,0.7c0,0.2,0.1,0.4,0.2,0.5l2,2.1
					c0.2-0.4,0.4-0.8,0.7-1.2L14,9.1z M27.6,5.8c3.6,0,6.9,1.6,9.3,4.1l0,0c0.3,0.2,0.6,0.2,0.9,0c0.2-0.3,0.2-0.7,0-0.9
					c0,0-0.1,0-0.1-0.1c-2.6-2.7-6.1-4.4-10.1-4.4c-4.9,0-9.2,2.6-11.8,6.5l0.9,1C19.1,8.2,23.1,5.8,27.6,5.8z M27.2,24.2
					c0.1,0.1,0.3,0.2,0.5,0.2c0.2,0,0.3-0.1,0.5-0.2l0,0l10.8-11.6c0,0,0,0,0,0l0.9-1c0,0,0,0,0,0l1.9-2l0,0
					c0.1-0.1,0.2-0.3,0.2-0.5c0-0.4-0.3-0.7-0.6-0.7c-0.2,0-0.3,0.1-0.5,0.2l0,0L39,10.4c0,0,0,0,0,0l-0.9,1c0,0,0,0,0,0L27.6,22.8
					L16.8,11.9c-0.2,0.4-0.5,0.8-0.7,1.2L27.2,24.2z M40.7,13.5c-0.3-0.3-0.7-0.3-0.9,0c-0.2,0.2-0.2,0.5-0.1,0.7l0,0
					c0.6,1.5,0.9,3.2,0.9,4.9c0,7.3-5.8,13.3-12.9,13.3c-7.1,0-12.9-6-12.9-13.3c0-2.2,0.5-4.2,1.4-6l-1-1c-1.1,2.1-1.7,4.4-1.7,7
					c0,8.1,6.3,14.6,14.2,14.6c7.8,0,14.2-6.6,14.2-14.6c0-1.9-0.4-3.7-1-5.3C40.8,13.7,40.7,13.6,40.7,13.5z"/>
			</g>
		</g>
		<path id="XMLID_600_" class="st1" d="M45.9,72.3l9-1c0,0,1.8,7.7-3.8,7.7S45.9,72.3,45.9,72.3z"/>
		<path id="XMLID_599_" class="st1" d="M0.6,70.5l9,1.5c0,0,0,7.7-5,6.5C-0.4,77.3,0.6,70.5,0.6,70.5z"/>
		<path id="XMLID_598_" class="st1" d="M41.8,9.1c0,0,12.5,7.4,10.8,20.2H38.4"/>
		<path id="XMLID_597_" class="st1" d="M14.2,9.1c0,0-12.5,7.4-10.8,20.2h14.2"/>
		<path id="XMLID_596_" class="st2" d="M42.3,6.3c0,0,0.9-5.8,7.7-5.8"/>
		<path id="XMLID_595_" class="st2" d="M13.5,6.3c0,0-0.9-5.8-7.7-5.8"/>
		<path id="XMLID_594_" class="st1" d="M13.5,53.5c0,0,4.5-9.3,15.1-9.3c10.6,0,14.2,7.8,14.2,7.8"/>
		<path id="XMLID_593_" class="st1" d="M18,48.2l-10-13c0,0-5.2,8.3-5.2,20"/>
		<path id="XMLID_592_" class="st1" d="M38.1,48.2l10-13c0,0,5.2,8.3,5.2,20"/>
		<path id="XMLID_591_" class="st1" d="M42.9,72.7V51.9c3,4.1,2.8,17.8,2.8,17.8l9-1.5c0.3-32.5-19-34.1-19-34.1s-2,5.4-8,5.4
			c-6,0-7.8-5.2-7.8-5.2C2.3,36.7,1.1,68.2,1.1,68.2l8.8,1.3c0.5-13.9,3.5-17.6,3.5-17.6l-0.1,20.4h-0.2L5.8,90.5h7.4l-0.1,20.8
			c0,0,0,9.3,7,9.3c7,0,5.8-9,5.8-9l-0.2-21.1h5.3l-0.8,21.1c0,0-1,8.8,5.5,8.8c6.5,0,7.3-5.7,7.3-5.7V91h6.3L42.9,72.7z"/>
	</g>
	<line id="XMLID_589_" class="st1" x1="12.7" y1="68.2" x2="44" y2="68.2"/>
	<line id="XMLID_588_" class="st1" x1="12.7" y1="62.4" x2="43.4" y2="62.4"/>
</g>
</svg>
