<?xml version="1.0" encoding="utf-8"?>
<!-- Generator: Adobe Illustrator 19.0.0, SVG Export Plug-In . SVG Version: 6.00 Build 0)  -->
<svg version="1.1" id="Layer_2" xmlns="http://www.w3.org/2000/svg" xmlns:xlink="http://www.w3.org/1999/xlink" x="0px" y="0px"
	 viewBox="0 0 27.6 27.6" style="enable-background:new 0 0 27.6 27.6;" xml:space="preserve">
<style type="text/css">
	.st0{fill:none;stroke:#FFFFFF;stroke-miterlimit:10;}
	.st1{fill:#FFFFFF;}
</style>
<g>
	<circle class="st0" cx="13.8" cy="13.8" r="13.3"/>
	<path class="st1" d="M19.6,6.5H9.3c-1.1,0-2,0.9-2,2.1v10.5c0,1.2,0.9,2.1,2,2.1h10.3c1.1,0,2-0.9,2-2.1V8.6
		C21.6,7.4,20.7,6.5,19.6,6.5z M17.3,8.6c0,0,0-0.4,0.4-0.4h2c0,0,0.4,0,0.4,0.4c0,0.3,0,2.1,0,2.1S20,11,19.8,11s-2.1,0-2.1,0
		s-0.4,0-0.4-0.4V8.6z M14.5,11.1c1.6,0,2.8,1.3,2.8,2.8s-1.3,2.8-2.8,2.8c-1.6,0-2.8-1.3-2.8-2.8S12.9,11.1,14.5,11.1z M20.1,19.1
		c0,0,0,0.4-0.4,0.4H9.2c0,0-0.4-0.1-0.4-0.4c0-0.3,0-6.4,0-6.4h1.4c0,0-0.8,2.7,1.4,4.6c0,0,1.2,1.1,2.9,1c0,0,2.1-0.1,3.3-1.6
		c0,0,1.5-1.7,0.9-4.1h1.4V19.1z"/>
</g>
</svg>
