<?xml version="1.0" encoding="utf-8"?>
<!-- Generator: Adobe Illustrator 19.0.0, SVG Export Plug-In . SVG Version: 6.00 Build 0)  -->
<svg version="1.1" xmlns="http://www.w3.org/2000/svg" xmlns:xlink="http://www.w3.org/1999/xlink" x="0px" y="0px"
	 viewBox="0 0 147.5 54.5" style="enable-background:new 0 0 147.5 54.5;" xml:space="preserve">
<style type="text/css">
	.st0{display:none;}
	.st1{display:inline;fill:#111111;}
	.st2{display:none;opacity:0.6;}
	.st3{display:inline;fill:#FFFFFF;}
	.st4{display:none;opacity:0.2;}
	.st5{display:none;opacity:0.3;fill:#FFFFFF;}
	.st6{display:none;opacity:0.5;fill:#FFFFFF;}
	.st7{fill:#FFFFFF;}
</style>
<g id="Layer_2" class="st0">
	<rect id="XMLID_53_" x="-522.1" y="-281.3" class="st1" width="837.6" height="675.5"/>
</g>
<g id="Layer_1">
	<g id="_x33_" class="st2">
		<rect x="-22.3" y="-146.9" class="st3" width="2.4" height="13.9"/>
		<polygon class="st3" points="-28.1,-132.8 -30.5,-132.7 -31.2,-146.5 -28.8,-146.6 		"/>
		
			<rect x="-39.4" y="-145.9" transform="matrix(0.9946 -0.1039 0.1039 0.9946 14.2236 -4.7162)" class="st3" width="2.4" height="13.9"/>
		
			<rect x="-47.8" y="-144.7" transform="matrix(0.9878 -0.1559 0.1559 0.9878 20.9101 -8.9552)" class="st3" width="2.4" height="13.9"/>
		<polygon class="st3" points="-52.4,-129.7 -54.8,-129.2 -57.6,-142.7 -55.3,-143.2 		"/>
		
			<rect x="-64.5" y="-141.1" transform="matrix(0.9659 -0.2589 0.2589 0.9659 32.5765 -20.9701)" class="st3" width="2.4" height="13.9"/>
		
			<rect x="-72.7" y="-138.6" transform="matrix(0.9512 -0.3087 0.3087 0.9512 37.1577 -28.5008)" class="st3" width="2.4" height="13.9"/>
		
			<rect x="-80.7" y="-135.7" transform="matrix(0.9335 -0.3586 0.3586 0.9335 40.8937 -37.0833)" class="st3" width="2.4" height="13.9"/>
		
			<rect x="-88.6" y="-132.4" transform="matrix(0.9144 -0.4048 0.4048 0.9144 43.3115 -46.1186)" class="st3" width="2.4" height="13.9"/>
		<polygon class="st3" points="-90.9,-116.1 -93,-115 -99.3,-127.4 -97.1,-128.5 		"/>
		
			<rect x="-103.8" y="-124.6" transform="matrix(0.8657 -0.5005 0.5005 0.8657 45.1065 -67.1251)" class="st3" width="2.4" height="13.9"/>
		
			<rect x="-111" y="-120.1" transform="matrix(0.839 -0.5441 0.5441 0.839 43.8775 -77.9594)" class="st3" width="2.4" height="13.9"/>
		<polygon class="st3" points="-111.8,-103.4 -113.7,-101.9 -121.9,-113.2 -119.9,-114.6 		"/>
		
			<rect x="-124.8" y="-110" transform="matrix(0.7768 -0.6298 0.6298 0.7768 37.2975 -100.8232)" class="st3" width="2.4" height="13.9"/>
		<polygon class="st3" points="-124.5,-93.1 -126.3,-91.5 -135.6,-101.8 -133.8,-103.4 		"/>
		<polygon class="st3" points="-130.4,-87.5 -132.1,-85.8 -141.9,-95.6 -140.2,-97.3 		"/>
		
			<rect x="-143.2" y="-92.2" transform="matrix(0.6697 -0.7426 0.7426 0.6697 16.4353 -133.6512)" class="st3" width="2.4" height="13.9"/>
		<polygon class="st3" points="-141.4,-75.4 -142.9,-73.5 -153.7,-82.2 -152.2,-84.1 		"/>
		<polygon class="st3" points="-146.4,-68.9 -147.8,-66.9 -159,-75.1 -157.6,-77 		"/>
		<polygon class="st3" points="-151,-62.1 -152.3,-60.1 -164,-67.7 -162.7,-69.7 		"/>
		<polygon class="st3" points="-155.3,-55.2 -156.5,-53.1 -168.5,-60 -167.3,-62.1 		"/>
		<polygon class="st3" points="-159.2,-48 -160.3,-45.9 -172.7,-52.2 -171.6,-54.3 		"/>
		
			<rect x="-170.8" y="-49.3" transform="matrix(0.408 -0.913 0.913 0.408 -61.733 -179.9119)" class="st3" width="2.4" height="13.9"/>
		
			<rect x="-174" y="-41.4" transform="matrix(0.3588 -0.9334 0.9334 0.3588 -78.6475 -183.391)" class="st3" width="2.4" height="13.9"/>
		
			<rect x="-176.8" y="-33.3" transform="matrix(0.3084 -0.9513 0.9513 0.3084 -96.3659 -185.3089)" class="st3" width="2.4" height="13.9"/>
		<polygon class="st3" points="-171,-17.6 -171.6,-15.2 -185,-18.8 -184.4,-21.1 		"/>
		
			<rect x="-181.2" y="-16.8" transform="matrix(0.2079 -0.9782 0.9782 0.2079 -132.8866 -183.8357)" class="st3" width="2.4" height="13.9"/>
		
			<rect x="-182.7" y="-8.4" transform="matrix(0.1573 -0.9876 0.9876 0.1573 -151.4738 -180.4362)" class="st3" width="2.4" height="13.9"/>
		<polygon class="st3" points="-175.5,6.5 -175.8,8.9 -189.5,7.5 -189.3,5.1 		"/>
		
			<rect x="-184.3" y="8.6" transform="matrix(5.288399e-02 -0.9986 0.9986 5.288399e-02 -188.9585 -168.1903)" class="st3" width="2.4" height="13.9"/>
		<polygon class="st3" points="-176.4,22.9 -176.4,25.3 -190.3,25.3 -190.3,22.9 		"/>
		<polygon class="st3" points="-176.2,31 -176.1,33.4 -189.9,34.2 -190,31.7 		"/>
		<polygon class="st3" points="-175.6,39.2 -175.3,41.6 -189.1,43 -189.4,40.6 		"/>
		<polygon class="st3" points="-174.5,47.3 -174.1,49.7 -187.8,51.8 -188.2,49.4 		"/>
		
			<rect x="-180.8" y="51" transform="matrix(-0.209 -0.9779 0.9779 -0.209 -273.7711 -105.553)" class="st3" width="2.4" height="13.9"/>
		<polygon class="st3" points="-171.1,63.3 -170.5,65.6 -183.9,69.2 -184.5,66.9 		"/>
		<polygon class="st3" points="-168.8,71.1 -168.1,73.4 -181.3,77.7 -182,75.4 		"/>
		
			<rect x="-173.4" y="75.5" transform="matrix(-0.3585 -0.9335 0.9335 -0.3585 -310.848 -48.7352)" class="st3" width="2.4" height="13.9"/>
		<polygon class="st3" points="-163,86.4 -162,88.6 -174.7,94.2 -175.7,92 		"/>
		<polygon class="st3" points="-159.5,93.8 -158.4,95.9 -170.8,102.2 -171.9,100.1 		"/>
		
			<rect x="-162.2" y="98.6" transform="matrix(-0.4993 -0.8665 0.8665 -0.4993 -332.8133 18.6216)" class="st3" width="2.4" height="13.9"/>
		
			<rect x="-157.7" y="105.8" transform="matrix(-0.5443 -0.8389 0.8389 -0.5443 -336.2944 42.7926)" class="st3" width="2.4" height="13.9"/>
		<polygon class="st3" points="-146.7,114.7 -145.3,116.6 -156.6,124.8 -158,122.8 		"/>
		<polygon class="st3" points="-141.8,121.2 -140.3,123.1 -151,131.8 -152.6,129.9 		"/>
		<polygon class="st3" points="-136.5,127.4 -134.9,129.2 -145.2,138.5 -146.8,136.7 		"/>
		<polygon class="st3" points="-130.9,133.4 -129.2,135.1 -139,144.9 -140.7,143.2 		"/>
		<polygon class="st3" points="-125,139 -123.2,140.6 -132.4,150.9 -134.2,149.3 		"/>
		<polygon class="st3" points="-118.7,144.3 -116.9,145.8 -125.6,156.6 -127.5,155.1 		"/>
		<polygon class="st3" points="-112.3,149.3 -110.3,150.7 -118.5,161.9 -120.4,160.5 		"/>
		<polygon class="st3" points="-105.5,154 -103.5,155.3 -111.1,166.9 -113.1,165.6 		"/>
		<polygon class="st3" points="-98.6,158.2 -96.5,159.4 -103.4,171.5 -105.5,170.2 		"/>
		<polygon class="st3" points="-91.4,162.2 -89.3,163.3 -95.6,175.6 -97.7,174.5 		"/>
		<polygon class="st3" points="-84,165.7 -81.8,166.7 -87.5,179.3 -89.7,178.4 		"/>
		
			<rect x="-79" y="168.8" transform="matrix(-0.933 -0.3598 0.3598 -0.933 -213.703 311.6901)" class="st3" width="2.4" height="13.9"/>
		<polygon class="st3" points="-68.8,171.6 -66.5,172.3 -70.8,185.5 -73.1,184.8 		"/>
		
			<rect x="-62.8" y="174" transform="matrix(-0.9656 -0.26 0.26 -0.9656 -168.0819 339.6075)" class="st3" width="2.4" height="13.9"/>
		
			<rect x="-54.5" y="175.9" transform="matrix(-0.9778 -0.2094 0.2094 -0.9778 -143.6434 350.5285)" class="st3" width="2.4" height="13.9"/>
		
			<rect x="-46.1" y="177.4" transform="matrix(-0.9876 -0.1567 0.1567 -0.9876 -118.0616 359.4501)" class="st3" width="2.4" height="13.9"/>
		<polygon class="st3" points="-36.9,178.4 -34.5,178.7 -35.9,192.5 -38.3,192.2 		"/>
		
			<rect x="-29.1" y="179.1" transform="matrix(-0.9986 -5.342154e-02 5.342154e-02 -0.9986 -65.6447 370.3906)" class="st3" width="2.4" height="13.9"/>
		<rect x="-20.5" y="179.3" class="st3" width="2.4" height="13.9"/>
		
			<rect x="-12" y="179" transform="matrix(-0.9987 5.187031e-02 -5.187031e-02 -0.9987 -11.9389 372.259)" class="st3" width="2.4" height="13.9"/>
		<polygon class="st3" points="-4.2,178.5 -1.8,178.2 -0.4,192 -2.8,192.3 		"/>
		<polygon class="st3" points="3.9,177.4 6.3,177.1 8.4,190.8 6.1,191.1 		"/>
		<polygon class="st3" points="11.9,176 14.3,175.5 17.2,189 14.8,189.5 		"/>
		<polygon class="st3" points="19.9,174.1 22.2,173.5 25.8,186.8 23.5,187.5 		"/>
		<polygon class="st3" points="27.7,171.8 30,171 34.3,184.2 32,185 		"/>
		<polygon class="st3" points="35.4,169.1 37.7,168.2 42.7,181.1 40.4,182 		"/>
		<polygon class="st3" points="43,165.9 45.2,165 50.8,177.6 48.6,178.6 		"/>
		<polygon class="st3" points="50.4,162.4 52.5,161.3 58.8,173.7 56.7,174.8 		"/>
		
			<rect x="60.9" y="157" transform="matrix(-0.8652 0.5014 -0.5014 -0.8652 198.0103 274.6757)" class="st3" width="2.4" height="13.9"/>
		<polygon class="st3" points="64.6,154.3 66.6,153 74.1,164.6 72.1,165.9 		"/>
		<polygon class="st3" points="71.3,149.7 73.3,148.3 81.4,159.5 79.5,160.9 		"/>
		<polygon class="st3" points="77.8,144.7 79.7,143.2 88.4,154 86.5,155.5 		"/>
		<polygon class="st3" points="84,139.4 85.8,137.8 95.1,148.1 93.3,149.7 		"/>
		<polygon class="st3" points="90,133.8 91.7,132.1 101.5,141.9 99.8,143.6 		"/>
		<polygon class="st3" points="95.6,127.9 97.2,126.1 107.5,135.4 105.9,137.1 		"/>
		<polygon class="st3" points="100.9,121.7 102.4,119.8 113.2,128.5 111.7,130.4 		"/>
		
			<rect x="111" y="111.4" transform="matrix(-0.589 0.8081 -0.8081 -0.589 273.9345 97.26)" class="st3" width="2.4" height="13.9"/>
		<polygon class="st3" points="110.6,108.5 111.9,106.4 123.5,114 122.2,116 		"/>
		<polygon class="st3" points="114.9,101.5 116.1,99.4 128.1,106.3 126.9,108.4 		"/>
		<polygon class="st3" points="118.8,94.3 119.9,92.2 132.2,98.5 131.1,100.6 		"/>
		<polygon class="st3" points="122.3,86.9 123.3,84.8 135.9,90.4 135,92.6 		"/>
		<polygon class="st3" points="125.4,79.4 126.3,77.2 139.2,82.1 138.4,84.4 		"/>
		<polygon class="st3" points="128.2,71.7 128.9,69.4 142.1,73.7 141.4,76 		"/>
		
			<rect x="136.3" y="57.6" transform="matrix(-0.259 0.9659 -0.9659 -0.259 235.4547 -51.6268)" class="st3" width="2.4" height="13.9"/>
		
			<rect x="138.3" y="49.3" transform="matrix(-0.2092 0.9779 -0.9779 -0.2092 223.604 -68.4502)" class="st3" width="2.4" height="13.9"/>
		<polygon class="st3" points="134,47.9 134.3,45.5 148,47.7 147.6,50.1 		"/>
		<polygon class="st3" points="135,39.8 135.3,37.4 149.1,38.8 148.8,41.2 		"/>
		
			<rect x="141.5" y="23.9" transform="matrix(-5.261172e-02 0.9986 -0.9986 -5.261172e-02 180.9381 -110.0649)" class="st3" width="2.4" height="13.9"/>
		<polygon class="st3" points="135.9,23.5 135.9,21.1 149.8,21.1 149.8,23.5 		"/>
		
			<rect x="141.4" y="6.8" transform="matrix(5.226241e-02 0.9986 -0.9986 5.226241e-02 148.8391 -129.3817)" class="st3" width="2.4" height="13.9"/>
		<polygon class="st3" points="135.1,7.1 134.8,4.7 148.6,3.3 148.9,5.7 		"/>
		
			<rect x="139.5" y="-10.2" transform="matrix(0.1562 0.9877 -0.9877 0.1562 115.5256 -141.7171)" class="st3" width="2.4" height="13.9"/>
		<polygon class="st3" points="132.6,-9 132.1,-11.4 145.6,-14.2 146.1,-11.9 		"/>
		
			<rect x="135.9" y="-26.9" transform="matrix(0.2583 0.9661 -0.9661 0.2583 82.4146 -147.1904)" class="st3" width="2.4" height="13.9"/>
		<polygon class="st3" points="128.4,-24.8 127.6,-27.1 140.8,-31.4 141.6,-29.1 		"/>
		<polygon class="st3" points="125.7,-32.5 124.8,-34.8 137.7,-39.7 138.6,-37.5 		"/>
		<polygon class="st3" points="122.5,-40.1 121.6,-42.3 134.2,-47.9 135.2,-45.7 		"/>
		<polygon class="st3" points="119,-47.5 117.9,-49.6 130.3,-55.9 131.4,-53.8 		"/>
		<polygon class="st3" points="115.2,-54.7 114,-56.7 126,-63.7 127.2,-61.6 		"/>
		<polygon class="st3" points="110.9,-61.6 109.6,-63.7 121.2,-71.2 122.5,-69.2 		"/>
		
			<rect x="110" y="-80.4" transform="matrix(0.5875 0.8092 -0.8092 0.5875 -13.5627 -120.2556)" class="st3" width="2.4" height="13.9"/>
		
			<rect x="104.7" y="-87.1" transform="matrix(0.629 0.7774 -0.7774 0.629 -23.0214 -112.1115)" class="st3" width="2.4" height="13.9"/>
		<polygon class="st3" points="96,-81.1 94.4,-82.9 104.7,-92.2 106.3,-90.4 		"/>
		<polygon class="st3" points="90.4,-87 88.7,-88.8 98.5,-98.5 100.2,-96.8 		"/>
		
			<rect x="87" y="-105.6" transform="matrix(0.743 0.6693 -0.6693 0.743 -43.3473 -84.4068)" class="st3" width="2.4" height="13.9"/>
		<polygon class="st3" points="78.3,-98 76.4,-99.5 85.1,-110.3 87,-108.8 		"/>
		
			<rect x="73.7" y="-116.2" transform="matrix(0.8094 0.5873 -0.5873 0.8094 -49.9196 -64.8206)" class="st3" width="2.4" height="13.9"/>
		<polygon class="st3" points="65.1,-107.6 63.1,-109 70.6,-120.6 72.6,-119.3 		"/>
		<polygon class="st3" points="58.1,-111.9 56,-113.1 63,-125.1 65,-123.9 		"/>
		<polygon class="st3" points="50.9,-115.8 48.8,-116.9 55.1,-129.3 57.2,-128.2 		"/>
		<polygon class="st3" points="43.6,-119.4 41.4,-120.4 47,-133 49.2,-132 		"/>
		
			<rect x="36.2" y="-136.4" transform="matrix(0.9332 0.3594 -0.3594 0.9332 -44.0122 -22.0753)" class="st3" width="2.4" height="13.9"/>
		
			<rect x="28.1" y="-139.2" transform="matrix(0.9509 0.3095 -0.3095 0.9509 -39.4878 -15.5643)" class="st3" width="2.4" height="13.9"/>
		<polygon class="st3" points="20.5,-127.6 18.2,-128.2 21.7,-141.6 24.1,-141 		"/>
		
			<rect x="11.6" y="-143.5" transform="matrix(0.9784 0.2068 -0.2068 0.9784 -27.9656 -5.5981)" class="st3" width="2.4" height="13.9"/>
		<polygon class="st3" points="4.5,-131 2.1,-131.4 4.3,-145.1 6.7,-144.7 		"/>
		<polygon class="st3" points="-3.6,-132.1 -6,-132.4 -4.6,-146.1 -2.2,-145.9 		"/>
		
			<rect x="-13.8" y="-146.7" transform="matrix(0.9986 5.286977e-02 -5.286977e-02 0.9986 -7.4063 0.4704)" class="st3" width="2.4" height="13.9"/>
	</g>
	<g id="_x31_" class="st4">
		<rect x="-23.8" y="-264.8" class="st3" width="4.1" height="23.5"/>
		<polygon class="st3" points="-33.6,-241 -37.6,-240.8 -38.9,-264.2 -34.8,-264.5 		"/>
		
			<rect x="-52.7" y="-263.2" transform="matrix(0.9945 -0.1049 0.1049 0.9945 26.0897 -6.696)" class="st3" width="4.1" height="23.5"/>
		<polygon class="st3" points="-61.1,-238.2 -65.1,-237.5 -68.8,-260.7 -64.8,-261.4 		"/>
		
			<rect x="-81.2" y="-258.5" transform="matrix(0.9782 -0.2077 0.2077 0.9782 49.5175 -21.8197)" class="st3" width="4.1" height="23.5"/>
		
			<rect x="-95.2" y="-255" transform="matrix(0.9659 -0.2589 0.2589 0.9659 59.8119 -32.4279)" class="st3" width="4.1" height="23.5"/>
		<polygon class="st3" points="-101.5,-228.6 -105.4,-227.3 -112.6,-249.6 -108.7,-250.9 		"/>
		
			<rect x="-122.7" y="-245.9" transform="matrix(0.9339 -0.3576 0.3576 0.9339 75.7782 -58.6405)" class="st3" width="4.1" height="23.5"/>
		<polygon class="st3" points="-127.3,-218.7 -131.1,-217 -140.6,-238.5 -136.9,-240.1 		"/>
		
			<rect x="-149" y="-234" transform="matrix(0.8915 -0.4529 0.4529 0.8915 84.7381 -90.69)" class="st3" width="4.1" height="23.5"/>
		
			<rect x="-161.7" y="-227.1" transform="matrix(0.8662 -0.4996 0.4996 0.8662 86.2227 -108.5808)" class="st3" width="4.1" height="23.5"/>
		
			<rect x="-174" y="-219.4" transform="matrix(0.8388 -0.5444 0.5444 0.8388 85.3556 -127.1025)" class="st3" width="4.1" height="23.5"/>
		
			<rect x="-185.9" y="-211.2" transform="matrix(0.8091 -0.5876 0.5876 0.8091 82.1061 -146.0961)" class="st3" width="4.1" height="23.5"/>
		<polygon class="st3" points="-186.3,-182.7 -189.5,-180.2 -204.2,-198.4 -201.1,-201 		"/>
		
			<rect x="-208.3" y="-192.9" transform="matrix(0.7433 -0.669 0.669 0.7433 68.2238 -184.4519)" class="st3" width="4.1" height="23.5"/>
		<polygon class="st3" points="-206.9,-164.2 -209.8,-161.4 -226.4,-178 -223.5,-180.8 		"/>
		
			<rect x="-228.6" y="-172.3" transform="matrix(0.6693 -0.743 0.743 0.6693 44.3769 -221.4021)" class="st3" width="4.1" height="23.5"/>
		<polygon class="st3" points="-225.5,-143.7 -228,-140.5 -246.3,-155.3 -243.7,-158.5 		"/>
		<polygon class="st3" points="-233.9,-132.7 -236.3,-129.4 -255.3,-143.2 -252.9,-146.5 		"/>
		<polygon class="st3" points="-241.8,-121.3 -244,-117.9 -263.7,-130.7 -261.5,-134.1 		"/>
		<polygon class="st3" points="-249,-109.5 -251.1,-106 -271.4,-117.8 -269.4,-121.3 		"/>
		<polygon class="st3" points="-255.7,-97.4 -257.5,-93.8 -278.4,-104.4 -276.6,-108 		"/>
		
			<rect x="-275.3" y="-99.5" transform="matrix(0.4072 -0.9133 0.9133 0.4072 -81.7591 -301.593)" class="st3" width="4.1" height="23.5"/>
		
			<rect x="-280.7" y="-86.2" transform="matrix(0.3586 -0.9335 0.9335 0.3586 -109.2693 -307.8726)" class="st3" width="4.1" height="23.5"/>
		<polygon class="st3" points="-271.6,-59.1 -272.9,-55.2 -295.2,-62.5 -294,-66.3 		"/>
		<polygon class="st3" points="-275.6,-45.8 -276.7,-41.9 -299.3,-47.9 -298.3,-51.9 		"/>
		
			<rect x="-292.8" y="-44.5" transform="matrix(0.2084 -0.978 0.978 0.2084 -198.0875 -310.3308)" class="st3" width="4.1" height="23.5"/>
		
			<rect x="-295.4" y="-30.3" transform="matrix(0.1566 -0.9877 0.9877 0.1566 -229.0739 -305.3527)" class="st3" width="4.1" height="23.5"/>
		<polygon class="st3" points="-283.2,-5 -283.7,-0.9 -307,-3.4 -306.6,-7.5 		"/>
		<polygon class="st3" points="-284.4,8.8 -284.6,12.9 -308,11.6 -307.8,7.6 		"/>
		<rect x="-308.2" y="22.6" class="st3" width="23.5" height="4.1"/>
		<polygon class="st3" points="-284.4,36.5 -284.2,40.6 -307.6,41.8 -307.8,37.7 		"/>
		<polygon class="st3" points="-283.3,50.3 -282.9,54.3 -306.3,56.8 -306.7,52.7 		"/>
		<polygon class="st3" points="-281.6,64 -280.9,68.1 -304.1,71.7 -304.8,67.7 		"/>
		<polygon class="st3" points="-279.1,77.6 -278.2,81.6 -301.2,86.5 -302,82.5 		"/>
		<polygon class="st3" points="-275.9,91.1 -274.8,95.1 -297.5,101.1 -298.5,97.2 		"/>
		<polygon class="st3" points="-272,104.4 -270.7,108.3 -293,115.5 -294.3,111.7 		"/>
		
			<rect x="-279.6" y="111.8" transform="matrix(-0.3584 -0.9336 0.9336 -0.3584 -492.4447 -91.2797)" class="st3" width="4.1" height="23.5"/>
		<polygon class="st3" points="-262.1,130.3 -260.4,134 -281.9,143.5 -283.5,139.8 		"/>
		<polygon class="st3" points="-256.1,142.8 -254.3,146.4 -275.2,157.1 -277.1,153.4 		"/>
		<polygon class="st3" points="-249.6,155 -247.5,158.5 -267.9,170.2 -269.9,166.7 		"/>
		<polygon class="st3" points="-242.4,166.8 -240.1,170.2 -259.8,183 -262,179.6 		"/>
		<polygon class="st3" points="-234.5,178.2 -232.1,181.5 -251.1,195.3 -253.5,192 		"/>
		<polygon class="st3" points="-226.1,189.2 -223.6,192.4 -241.8,207.2 -244.4,204 		"/>
		<polygon class="st3" points="-217.1,199.8 -214.4,202.8 -231.9,218.5 -234.6,215.5 		"/>
		
			<rect x="-216.5" y="207.8" transform="matrix(-0.7071 -0.7071 0.7071 -0.7071 -521.4261 223.1621)" class="st3" width="4.1" height="23.5"/>
		<polygon class="st3" points="-197.6,219.4 -194.6,222.1 -210.3,239.6 -213.3,236.8 		"/>
		<polygon class="st3" points="-187.1,228.4 -183.9,231 -198.7,249.2 -201.9,246.6 		"/>
		<polygon class="st3" points="-176.1,236.8 -172.8,239.2 -186.6,258.2 -189.9,255.8 		"/>
		<polygon class="st3" points="-164.7,244.7 -161.3,246.9 -174.1,266.6 -177.5,264.4 		"/>
		<polygon class="st3" points="-152.9,252 -149.4,254 -161.1,274.3 -164.7,272.3 		"/>
		<polygon class="st3" points="-140.8,258.6 -137.1,260.5 -147.8,281.4 -151.4,279.5 		"/>
		<polygon class="st3" points="-128.3,264.6 -124.6,266.2 -134.1,287.7 -137.8,286 		"/>
		<polygon class="st3" points="-115.5,269.9 -111.7,271.4 -120.1,293.3 -123.9,291.8 		"/>
		<polygon class="st3" points="-102.5,274.6 -98.6,275.8 -105.8,298.2 -109.7,296.9 		"/>
		<polygon class="st3" points="-89.2,278.5 -85.3,279.6 -91.3,302.3 -95.3,301.2 		"/>
		
			<rect x="-78.2" y="281.9" transform="matrix(-0.9781 -0.2083 0.2083 -0.9781 -211.8717 565.0523)" class="st3" width="4.1" height="23.5"/>
		<polygon class="st3" points="-62.1,284.3 -58.1,285 -61.8,308.2 -65.8,307.5 		"/>
		<polygon class="st3" points="-48.4,286.2 -44.3,286.6 -46.8,309.9 -50.9,309.5 		"/>
		<polygon class="st3" points="-34.6,287.3 -30.5,287.5 -31.7,310.9 -35.8,310.7 		"/>
		<rect x="-20.7" y="287.7" class="st3" width="4.1" height="23.5"/>
		
			<rect x="-6.3" y="287.2" transform="matrix(-0.9987 5.177172e-02 -5.177172e-02 -0.9987 6.9717 597.7122)" class="st3" width="4.1" height="23.5"/>
		<polygon class="st3" points="6.9,286.3 11,285.8 13.4,309.2 9.4,309.6 		"/>
		
			<rect x="22.4" y="284" transform="matrix(-0.9877 0.1561 -0.1561 -0.9877 94.8344 584.0785)" class="st3" width="4.1" height="23.5"/>
		
			<rect x="36.6" y="281.3" transform="matrix(-0.9783 0.2073 -0.2073 -0.9783 137.2807 571.7173)" class="st3" width="4.1" height="23.5"/>
		<polygon class="st3" points="47.7,278.8 51.7,277.7 57.7,300.4 53.8,301.5 		"/>
		<polygon class="st3" points="61,274.9 64.9,273.6 72.1,296 68.3,297.2 		"/>
		<polygon class="st3" points="74.1,270.3 77.9,268.8 86.3,290.7 82.5,292.2 		"/>
		<polygon class="st3" points="86.9,265 90.6,263.4 100.2,284.8 96.4,286.4 		"/>
		
			<rect x="104.5" y="256.9" transform="matrix(-0.8911 0.4539 -0.4539 -0.8911 323.3869 459.5878)" class="st3" width="4.1" height="23.5"/>
		<polygon class="st3" points="111.6,252.5 115.1,250.5 126.8,270.8 123.3,272.8 		"/>
		<polygon class="st3" points="123.4,245.3 126.8,243.1 139.6,262.7 136.2,265 		"/>
		<polygon class="st3" points="134.8,237.5 138.1,235.1 151.9,254.1 148.6,256.4 		"/>
		<polygon class="st3" points="145.8,229 149,226.5 163.8,244.7 160.6,247.3 		"/>
		<polygon class="st3" points="156.4,220.1 159.4,217.3 175.1,234.8 172.1,237.5 		"/>
		<polygon class="st3" points="166.4,210.6 169.3,207.7 185.9,224.3 183,227.2 		"/>
		<polygon class="st3" points="176,200.5 178.7,197.5 196.2,213.2 193.4,216.2 		"/>
		<polygon class="st3" points="185,190 187.6,186.9 205.8,201.6 203.2,204.8 		"/>
		<polygon class="st3" points="193.5,179 195.9,175.8 214.8,189.6 212.4,192.8 		"/>
		<polygon class="st3" points="201.3,167.7 203.5,164.2 223.2,177 221,180.4 		"/>
		<polygon class="st3" points="208.6,155.9 210.6,152.3 230.9,164.1 228.9,167.6 		"/>
		<polygon class="st3" points="215.2,143.7 217.1,140.1 238,150.7 236.1,154.4 		"/>
		<polygon class="st3" points="221.2,131.2 222.9,127.5 244.3,137 242.6,140.8 		"/>
		
			<rect x="236.2" y="109" transform="matrix(-0.3581 0.9337 -0.9337 -0.3581 436.2471 -58.4374)" class="st3" width="4.1" height="23.5"/>
		<polygon class="st3" points="231.2,105.4 232.4,101.5 254.8,108.8 253.5,112.6 		"/>
		<polygon class="st3" points="235.1,92.1 236.2,88.2 258.9,94.3 257.8,98.2 		"/>
		<polygon class="st3" points="238.4,78.7 239.2,74.7 262.2,79.6 261.3,83.5 		"/>
		<polygon class="st3" points="240.9,65 241.6,61 264.8,64.7 264.1,68.7 		"/>
		<polygon class="st3" points="242.8,51.3 243.2,47.3 266.5,49.7 266.1,53.8 		"/>
		<polygon class="st3" points="243.9,37.5 244.1,33.4 267.5,34.7 267.3,38.7 		"/>
		<rect x="244.3" y="19.6" class="st3" width="23.5" height="4.1"/>
		<polygon class="st3" points="243.9,9.8 243.7,5.8 267.2,4.5 267.4,8.6 		"/>
		<polygon class="st3" points="242.9,-4 242.5,-8 265.8,-10.5 266.2,-6.4 		"/>
		<polygon class="st3" points="241.1,-17.7 240.5,-21.7 263.6,-25.4 264.3,-21.4 		"/>
		
			<rect x="247.6" y="-47.5" transform="matrix(0.2079 0.9781 -0.9781 0.2079 162.7612 -272.5326)" class="st3" width="4.1" height="23.5"/>
		<polygon class="st3" points="235.4,-44.8 234.3,-48.7 257,-54.8 258.1,-50.9 		"/>
		<polygon class="st3" points="231.5,-58.1 230.2,-62 252.6,-69.2 253.8,-65.3 		"/>
		<polygon class="st3" points="226.9,-71.2 225.4,-75 247.3,-83.4 248.8,-79.6 		"/>
		<polygon class="st3" points="221.6,-84 220,-87.7 241.4,-97.2 243.1,-93.5 		"/>
		<polygon class="st3" points="215.7,-96.5 213.8,-100.1 234.8,-110.8 236.6,-107.1 		"/>
		<polygon class="st3" points="209.1,-108.7 207.1,-112.2 227.4,-123.9 229.4,-120.4 		"/>
		<polygon class="st3" points="201.9,-120.5 199.7,-123.9 219.4,-136.7 221.6,-133.3 		"/>
		<polygon class="st3" points="194.1,-131.9 191.7,-135.2 210.7,-149 213.1,-145.7 		"/>
		<polygon class="st3" points="185.6,-142.9 183.1,-146.1 201.3,-160.8 203.9,-157.7 		"/>
		
			<rect x="182" y="-174.6" transform="matrix(0.6687 0.7435 -0.7435 0.6687 -60.0903 -190.7686)" class="st3" width="4.1" height="23.5"/>
		
			<rect x="172" y="-185" transform="matrix(0.7066 0.7076 -0.7076 0.7066 -71.5389 -173.9636)" class="st3" width="4.1" height="23.5"/>
		<polygon class="st3" points="157.1,-173.1 154.1,-175.8 169.8,-193.2 172.9,-190.5 		"/>
		
			<rect x="150.4" y="-204.2" transform="matrix(0.7769 0.6297 -0.6297 0.7769 -87.1891 -138.929)" class="st3" width="4.1" height="23.5"/>
		<polygon class="st3" points="135.7,-190.5 132.4,-192.9 146.2,-211.9 149.5,-209.5 		"/>
		<polygon class="st3" points="124.3,-198.4 120.8,-200.6 133.6,-220.3 137,-218.1 		"/>
		
			<rect x="114.5" y="-228.6" transform="matrix(0.866 0.5001 -0.5001 0.866 -92.8133 -87.3514)" class="st3" width="4.1" height="23.5"/>
		<polygon class="st3" points="100.3,-212.3 96.7,-214.1 107.3,-235.1 111,-233.2 		"/>
		<polygon class="st3" points="87.8,-218.3 84.1,-219.9 93.6,-241.4 97.4,-239.7 		"/>
		
			<rect x="75.3" y="-247" transform="matrix(0.9332 0.3593 -0.3593 0.9332 -79.3796 -43.506)" class="st3" width="4.1" height="23.5"/>
		<polygon class="st3" points="62,-228.2 58.1,-229.5 65.4,-251.8 69.2,-250.6 		"/>
		<polygon class="st3" points="48.7,-232.2 44.8,-233.3 50.9,-255.9 54.8,-254.9 		"/>
		<polygon class="st3" points="35.3,-235.5 31.3,-236.3 36.2,-259.3 40.1,-258.4 		"/>
		<polygon class="st3" points="21.7,-238 17.6,-238.7 21.3,-261.8 25.3,-261.2 		"/>
		<polygon class="st3" points="7.9,-239.8 3.9,-240.3 6.3,-263.6 10.4,-263.2 		"/>
		<polygon class="st3" points="-5.9,-241 -9.9,-241.2 -8.7,-264.6 -4.6,-264.4 		"/>
	</g>
	<path id="XMLID_55_" class="st5" d="M-20.2,207c-24.5,0-48.3-4.8-70.7-14.3c-21.6-9.2-41.1-22.3-57.7-38.9
		c-16.7-16.7-29.8-36.1-38.9-57.7c-9.5-22.4-14.3-46.2-14.3-70.7c0-24.5,4.8-48.3,14.3-70.7c9.2-21.6,22.3-41.1,38.9-57.8
		c16.7-16.7,36.1-29.8,57.7-38.9c22.4-9.5,46.2-14.3,70.7-14.3c24.5,0,48.3,4.8,70.7,14.3c21.6,9.2,41.1,22.3,57.7,38.9
		C124.9-86.5,138-67,147.2-45.4c9.5,22.4,14.3,46.2,14.3,70.7c0,24.5-4.8,48.3-14.3,70.7c-9.1,21.6-22.2,41.1-38.9,57.7
		c-16.7,16.7-36.1,29.8-57.7,38.9C28.1,202.2,4.3,207-20.2,207z M-20.2-155.9c-99.9,0-181.2,81.3-181.2,181.2
		c0,99.9,81.3,181.2,181.2,181.2c99.9,0,181.2-81.3,181.2-181.2C161-74.6,79.7-155.9-20.2-155.9z"/>
	<path id="XMLID_54_" class="st6" d="M-20.2,212.9c-25.3,0-49.9-5-73-14.7c-22.3-9.4-42.4-23-59.6-40.2
		c-17.2-17.2-30.7-37.3-40.2-59.6c-9.8-23.1-14.7-47.7-14.7-73c0-25.3,5-49.9,14.7-73c9.4-22.3,23-42.4,40.2-59.6
		c17.2-17.2,37.3-30.7,59.6-40.2c23.1-9.8,47.7-14.7,73-14.7c25.3,0,49.9,5,73,14.7c22.3,9.4,42.4,23,59.6,40.2
		c17.2,17.2,30.7,37.3,40.2,59.6c9.8,23.1,14.7,47.7,14.7,73c0,25.3-5,49.9-14.7,73c-9.4,22.3-23,42.4-40.2,59.6
		c-17.2,17.2-37.3,30.7-59.6,40.2C29.7,207.9,5.1,212.9-20.2,212.9z M-20.2-159.6c-102,0-185,83-185,185c0,102,83,185,185,185
		c102,0,185-83,185-185C164.7-76.7,81.8-159.6-20.2-159.6z"/>
	<g id="logo_6_">
		<g>
			<polygon class="st7" points="137.1,17.5 141.9,17.5 141.9,19 140.3,19 140.3,27.8 138.8,27.8 138.8,19 137.1,19 			"/>
			<polygon class="st7" points="144.2,27.8 142.6,27.8 142.6,17.5 144.2,17.5 144.2,21.9 145.9,21.9 145.9,17.5 147.5,17.5 
				147.5,27.8 145.9,27.8 145.9,23.4 144.2,23.4 			"/>
			<path class="st7" d="M105.1,21.5c4.6,0,5.6-2.2,6.5-4.7h4v37.8h-5.9V25.7h-4.6V21.5z"/>
			<path class="st7" d="M130.2,25.8c0-3.4-1.2-4.3-3-4.3c-1.9,0-3,1-3,3.7v2.4h-5.5v-2c0-6,3-9.4,8.7-9.4c5.7,0,8.7,3.4,8.7,9.4v1
				c0,4-1.3,6.5-4.1,7.7c2.9,1.3,4.1,4,4.1,7.8V45c0,6-3,9.4-8.7,9.4c-5.7,0-8.7-3.4-8.7-9.4v-3.1h5.5v3.5c0,2.7,1.2,3.7,3,3.7
				c1.9,0,3-0.9,3-4.2v-2.9c0-3.5-1.2-4.7-3.8-4.7h-2v-5.3h2.3c2.2,0,3.5-1,3.5-3.9V25.8z"/>
			<g id="Layer_7_1_">
				<path class="st7" d="M4.1,25.4l0.2,0.4c-0.2-0.2-0.4-0.6-0.6-1c1,2.1,2.4,4.5,3.8,6.8L8,32.3l0.3,0.4L8.3,33l0,0l0,0l0,0l0,0
					c0.1,0.2,0.3,0.3,0.4,0.5C9,33.8,9.3,34,9.4,34c0.1,0.2,0.2,0.3,0.3,0.3c0.1,0,0.1,0,0.1-0.2c0-0.2,0-0.3,0-0.5
					c0-0.2-0.1-0.3-0.1-0.4c0-0.1,0-0.1,0-0.2c0-0.3,0-0.5,0-0.6c0,0,0-0.1,0-0.1c0,0,0,0,0,0l0,0l-0.1-0.1l-0.1-0.2l-0.9-1.8
					l0.7,1.5c-0.4-0.7-0.7-1.4-1.2-2.2l0.1,0.3c-1.2-2.5-3.2-5.8-4.5-7.3c-1.3-1.5-1.3-0.7-0.1,1.8L4.1,25.4z"/>
				<path class="st7" d="M5.9,30.3c-0.8-1.5-1.5-2.9-2.2-4.4l-0.1-0.3l-0.2,0.2l0,0c1,1.2,2.3,3.3,3.5,5.2l0.4,0.7
					c0.2,0.3,0.4,0.5,0.5,0.6c0.2,0.1-0.1-0.6-0.6-1.5l-0.6-1.1c-1.4-2.6-3.8-6.7-5-7.9c-0.3-0.3-0.2,0.1-0.3,0.2
					c-0.2,0,0.2,1,1,2.3c0.7,1.3,1.5,2.3,1.7,2.3l0.4,0.7l-0.4-0.5c0.3,0.3,1.1,1.4,1.7,2.3l0.8,1.3l-0.1-0.9l-0.4-0.7
					c0,0.1,0.1,0.2,0,0.2c-0.9-1.2-1.7-2.4-2.6-3.8l-1.2-1.7c-0.4-0.4-0.4-0.3-0.2,0.2l0.4,0.8l-0.2-0.4c1,1.9,2.1,3.8,3.1,5.7
					c0.2,0.3,0.4,0.6,0.5,0.8C6.1,30.8,6,30.6,5.9,30.3z"/>
				<g>
					<path class="st7" d="M2,23.9c-0.1-0.3-0.3-0.6-0.5-1l-0.1-0.2l0.3,0.6C1.8,23.8,2,24,2,23.9z"/>
					<polygon class="st7" points="1.4,22.7 1.2,22.5 1.3,22.7 1.3,22.7 					"/>
					<path class="st7" d="M42.4,16.1c2.3-2.5,4.9-4.9,7.7-7c2.8-2.1,5.8-4,9.1-5.4c0.2-0.1,0.4-0.2,0.4-0.2c0,0-0.2,0-0.4,0.1
						c-3.3,1.5-6.3,3.3-9.1,5.4c-2.8,2.1-5.4,4.5-7.7,7c-0.2,0.2-0.3,0.3-0.3,0.4C42.1,16.3,42.3,16.2,42.4,16.1z"/>
					<path class="st7" d="M89.3,4.8C89.2,4.8,89.2,4.8,89.3,4.8c0.1,0.1,0.4,0.2,0.5,0.2c0.1,0,0.1,0,0-0.1
						C89.7,4.9,89.5,4.8,89.3,4.8z"/>
					<path class="st7" d="M87.4,6.3c-0.9-0.2-1.7-0.4-2.4-0.5c-0.1,0-0.3-0.1-0.4-0.1c0,0.1-0.1,0-0.4,0C81,5.1,77.7,4.8,74.5,5
						c-3.3,0.2-6.5,0.9-9.6,2c0,0-0.1,0.1-0.2,0.2c-0.4,0.2-1.2,0.6-2.1,0.9l-0.7,0.3c-2.6,1.1-5.2,2.5-7.5,4.2
						c-0.4,0.4-1,0.8-1.6,1.3c-1.9,1.7-3.6,3.5-5.3,5.4c0.1-0.1,0.2-0.1,0.2-0.1c0,0.1-0.3,0.6-0.8,1.1l-0.7,0.8
						c0.7-0.7,1.4-1.5,2.1-2.2c0.1-0.1,0.2-0.2,0.3-0.3c0.8-0.8,1.6-1.5,2.4-2.3c3.6-3.3,7.5-6,11.7-7.9c4.2-1.9,8.6-3,13.1-3.1
						c0.1,0,0.4,0,0.5,0c0.1,0,0.1,0.1-0.1,0.1c-2.9,0.2-5.5,0.7-8,1.5c-2.6,0.8-5.1,2-7.8,3.5c-3.2,1.9-6.2,4.2-8.9,6.8
						c-2.7,2.6-5.2,5.6-7.4,8.8c-0.5,0.7-1,1.4-1.5,2.1l-0.4,0.5L42,29.2l-0.3,0.5c-0.5,0.7-0.9,1.4-1.3,2.2
						c-0.4,0.7-0.8,1.5-1.2,2.3l-1.2,2.5L35.4,42l-0.2-0.3l-0.1-0.1c0,0-0.1-0.1-0.1-0.1l-0.5-0.7l-1-1.4l-1.9-2.8l-4-5.7l-1-1.5
						l-0.4-0.6l-0.3-0.4l-1.1-1.5l-0.5-0.8c-0.2-0.2-0.4-0.6-0.4-0.5l-0.1-0.1c-0.1-0.1-0.2-0.1-0.2-0.2c0,0.2-0.1,0.3-0.1,0.4
						l0,0.1l0,0l-0.1,0.4L23,26.9l-1.4,3.2L18.7,37l-5.5,12.9c-0.7,1.6-1.3,3.1-1.9,4.5c-1.7-2.9-3.2-5.7-4.3-7.8
						c-1.1-2.1-1.8-3.6-1.9-4.2C5,41.9,5.3,42,5.7,42.5C6.2,43,6.8,43.8,7.6,45l-0.9-1.6l-1.4-2.5c-0.7-1.2-1.3-2.3-1.7-3.2
						c-0.2-0.5-0.5-0.9-0.7-1.3c-0.1-0.1-0.1-0.2-0.1-0.2l-0.1-0.2c0-0.1-0.1-0.2-0.1-0.3l-0.4-1.1c-0.5-1.6-1.5-4-1.7-5.3l0.3,0.2
						L0.6,29C0.2,28.1,0,27.4,0,27.1l0.2,0c0.3,0.1,0.7,0.4,1.3,1c0.1-0.1,0.2,0,0.4,0.1c-0.2-0.7-0.2-1.1,0.3-0.7
						c-0.2-0.4-0.1-0.4,0.2,0c0.1,0.1,0.2,0.3,0.3,0.5l0,0c-0.1-0.2-0.1-0.3-0.2-0.6l-0.3-0.6l-1-1.8c-0.4-0.7-0.5-1.2-0.5-1.2
						c-0.2-1-0.2-1,0-0.9c0,0,0.1,0.1,0.1,0.1l-0.4-0.9c-0.1-0.2-0.1-0.3-0.1-0.3c0.1-0.1,0.1-0.1,0-0.2c0-0.1,0-0.1,0-0.1
						c0.3,0.3,0.3,0.3,0.3,0.3C0.8,21.9,0.9,22,0.9,22l0.4,0.6l0.3,1l0.2,0.2l0,0.3l0-0.2l0.2,0.5l-0.2-0.5c0.6,1.1,0.6,1.1,0.8,1.5
						c0.2,0.4,0.5,0.8,0.5,0.9c0-0.1,0-0.1,0-0.1l1.3,2.3c0,0.1,0.1,0.2,0.1,0.3c0.1,0.1,0.2,0.3,0.3,0.5l0.3,0.6l0.1,0.1
						c0,0,0,0,0,0l0.3,0.5l0.1,0.1l0,0l1.4,2L7.4,33l0.1,0.2l0.1,0.1c0,0,0,0.1,0,0.1c0,0,0-0.1-0.1-0.1l-0.1-0.1
						c-0.1-0.2,0.1-0.1,0-0.2c-1.3-2.5-2.8-5.2-4.2-7.8c-0.3-0.5-0.5-0.9-0.5-1c0-0.1,0.3,0.2,0.6,0.7c0.9,1.2,1.7,2.6,2.6,3.9
						c0.4,0.7,0.9,1.4,1.3,2.1L8,32l0.6,1c0.5,0.9,1,1.8,1.6,3.2l0-0.1c0.2-0.5,0.5-1,0.8-1.5c0,0,0,0-0.1,0l0.2-0.4l0,0
						c-0.1,0.1-0.2,0.1-0.2,0.2l-0.1,0.2c-0.2,0.5-0.5,0.9-0.7,1.2c-0.4-0.8-0.6-1.5-0.9-2c-0.1-0.3-0.2-0.5-0.3-0.7l0-0.2l0,0l0,0
						l0,0l0-0.1l-0.2-0.3L8,31c-0.2-0.4-0.4-0.7-0.3-0.7c0.1,0,0.3,0.4,0.6,0.8l0.7,1.2l0.1,0.2l0,0l0,0l0,0l0.1,0.1
						c0.1,0.1,0.2,0.3,0.2,0.4c0.2,0.3,0.3,0.6,0.5,1c0.2-0.2,0.4-0.4,0.8-0.7c0.1-0.1,0.1-0.3,0.2-0.4c0-0.1,0.1-0.1,0.1-0.2
						l0.1-0.1l0,0l0,0c0,0,0,0,0,0l0,0l0,0l0,0.1c0,0,0,0,0,0l0,0L11,32.8c0,0,0.1-0.1,0.1-0.1l0.2-0.4c0.2-0.3,0.3-0.6,0.5-0.9
						l-0.3,0.2c0.9-1.9,1.8-4,2.7-6c0.4-1,0.9-2,1.3-2.9l1-2.2l1.1-2.3l0.3-0.7c1-2.7,2.2-5.6,3.5-8.8L20,11.8
						c0.6-1.5,1.2-3,1.8-4.5C22.4,8,23,8.9,23.6,9.7c2.1,3.1,4.3,6.5,6.1,9.4l0.7,1.1c0.2,0.3,0.5,0.8,0.5,0.9
						c0.2,0.4,0.4,0.8,0.6,1.2c0.4,0.7,0.7,1.4,0.9,1.9l0.4,0.6l0.2,0.3l0.5,0.7l0.5,0.7l0.2,0.3l0.1,0.2l0,0c0,0,0,0,0,0l0-0.1
						c0.2-0.4,0.4-0.9,0.7-1.3c0.1-0.2,0.2-0.4,0.4-0.6l0.2-0.3l0.1-0.1l0.2-0.4c1.5-2.3,3.1-4.5,4.9-6.6c0.3-0.3,0.6-0.6,0.7-0.6
						c0.1,0-0.1,0.2-0.4,0.6c-1.7,2.1-3.3,4.4-4.8,6.7l-0.3,0.4l0,0.1l0,0L36,24.8l-0.2,0.4c-0.1,0.2-0.3,0.5-0.4,0.7
						c-0.3,0.5-0.5,1-0.8,1.6l0,0.1c0,0,0,0.1,0,0l-0.1-0.2l-0.2-0.3l0.2,0.4l0.1,0.2c0,0.1,0,0,0.1,0l0-0.1c0.4-0.8,1-1.6,1.5-2.5
						l0.7-1c0.3-0.5,0.7-0.9,1-1.4c0.7-0.9,1.4-1.8,2.1-2.7c0.4-0.5,0.8-1.1,1.3-1.6c0.4-0.5,0.9-1,1.3-1.5c2.3-2.5,4.7-4.8,7.3-6.9
						c2.6-2.1,5.5-4,8.7-5.6C61.2,3,63.9,2,66.7,1.2c2.8-0.7,5.7-1.1,8.7-1.2c4.3-0.1,8.4,0.5,12.4,1.5c3.9,1.1,7.7,2.6,11.3,4.6
						c1,0.5,1.8,1.1,1.9,1.3c0.1,0.2-0.7-0.1-1.7-0.6c-3.8-2-7.8-3.6-12-4.7c-4.2-1.1-8.6-1.6-13-1.4c-4.4,0.2-8.8,1.2-12.9,2.9
						c-4.1,1.7-8,4-11.5,6.8c-1.5,1.2-2.9,2.5-4.3,3.8c0,0,0.1,0,0.1,0c0,0,0,0.2-0.2,0.5c1.5-1.5,3.1-2.9,4.9-4.2
						c2.3-1.9,4.8-3.6,7.6-5.1c2.7-1.4,5.7-2.6,8.9-3.3c4.4-1,8.5-1,12.6-0.5c5.2,0.4,10.2,1.9,15,3.9c0.2,0.1,0.4,0.2,0.4,0.2
						c0.1,0.1-0.1,0-0.2-0.1c-3.3-1.3-6.8-2.5-10.4-3.1c0.6,0.2,0.9,0.4,0.8,0.5C85,3,84.5,3,83.8,2.9c0.8,0.2,1.6,0.4,2.4,0.6
						c0.5,0.1,0.9,0.3,0.8,0.3c0,0.1-0.4,0-0.9-0.1c-3.2-0.9-6.6-1.4-10-1.5c-4,0-8.1,0.6-11.9,1.9c0.6-0.1,1-0.1,1.2-0.1
						c0,0,0,0,0,0c0.6-0.2,1.2-0.3,1.8-0.5c2.7-0.7,5.6-1.1,8.5-1.2c2.9,0,5.8,0.3,8.6,0.9c5.7,1.2,11.1,3.6,16.1,6.6
						c0.2,0.1,0.3,0.2,0.3,0.3c0,0-0.2,0-0.3-0.2c-3-1.8-6.2-3.4-9.5-4.6l0,0c0.1,0.1,0.1,0.1,0,0.1c-0.1,0-0.4-0.1-0.5-0.2
						c-0.1-0.1-0.1-0.1,0-0.1C87.4,4,84.2,3.2,81,2.8c-3.2-0.4-6.5-0.4-9.7,0c3-0.4,6-0.3,8.9,0c2.9,0.4,5.8,1.1,8.6,2
						c0.6,0.2,1.2,0.4,1.9,0.6c0.2,0.1,0.4,0.2,0.4,0.2c0,0-0.1,0-0.3,0l-0.5-0.2c1,0.4,1.8,0.8,1.7,1c-0.1,0.1-1-0.2-2.1-0.6
						c-2.9-1-5.9-1.8-8.9-2.3c-0.3,0-0.7-0.1-1-0.1c-0.3,0-0.7,0-1,0c4.7,0.5,9.3,1.9,13.6,3.9c0.4,0.2,0.7,0.3,0.7,0.4
						c0,0-0.3,0-0.7-0.2c-3.8-1.6-7.9-2.7-12-3.2c-4.1-0.5-8.3-0.4-12.3,0.5c-2.6,0.8-5.1,1.8-7.5,3.2l1-0.4
						c4.1-1.7,8.1-2.8,12.2-3.1c4.1-0.3,8.2,0,12.5,1.2c0.2,0.1,0.4,0.1,0.4,0.2c0,0-0.1,0-0.3-0.1c-2.1-0.6-4.1-0.9-6.1-1.1
						c-2-0.2-4-0.2-6.1-0.1c-3.4,0.2-6.7,1-9.6,2.1c3.1-1.1,6.2-1.7,9.4-1.9c3.2-0.2,6.4,0,9.6,0.6c0.3,0,0.6,0.1,0.7,0.2
						c0,0,0.1,0,0.2,0c0.8,0.1,1.7,0.3,2.6,0.5c0.2,0,0.4,0.1,0.5,0.2C87.7,6.3,87.6,6.3,87.4,6.3z M10.1,39.3L10,39.2l0.2,0.5
						l0.1,0.4c0,0,0.1,0,0.2-0.1l-0.1,0.1L10.1,39.3z M5.6,33.2L5.6,33.2l-0.1-0.5L5.6,33.2z M35.3,26.7c-0.2,0.4-0.5,0.8-0.7,1.2
						L34.6,28l0,0.1l0,0c0,0,0,0,0,0l0,0l-0.1-0.2l-0.3-0.4l-0.5-0.8c-0.3-0.5-0.7-1.1-1-1.6l0.7,0.9L34,27l0.3,0.6l0.2,0.3l0,0.1
						c0,0,0,0,0,0l0,0l0.1-0.1C34.8,27.5,35,27.1,35.3,26.7z M8.1,34.5c0.2,0.5,0.3,1,0.5,1.6c0.2,0.3,0.4,0.6,0.6,1
						c0.4,0.6,0.7,1.3,1.1,1.9l0.4-0.9c-0.1,0,0-0.2,0.1-0.3l0.1-0.4l-0.7,1.3l-0.8-1.5C9,36.3,8.5,35.3,8.1,34.5z M2,24.7L2,24.6
						l0.3,0.2L2,24.7z M1.6,24.3l0.1,0.2C1.6,24.5,1.6,24.4,1.6,24.3z M2.7,26.5c0-0.1-0.1-0.2-0.1-0.3L2.7,26.5z M0.9,29.5L1.8,30
						L0.9,29.5L0.9,29.5z"/>
				</g>
			</g>
			<g id="Layer_6_3_">
				<path class="st7" d="M66.6,25.8L64,16.7h2.2l1.6,6.2l1.6-6.2h2l-2.6,9.1v4.5h-2.1V25.8L66.6,25.8z"/>
				<path class="st7" d="M71.6,19.9c0-2.2,1.1-3.4,3.1-3.4c2,0,3.1,1.2,3.1,3.4V27c0,2.2-1.1,3.4-3.1,3.4c-2,0-3.1-1.2-3.1-3.4V19.9
					z M73.7,27.2c0,1,0.4,1.3,1.1,1.3c0.7,0,1.1-0.4,1.1-1.3v-7.4c0-1-0.4-1.3-1.1-1.3c-0.7,0-1.1,0.4-1.1,1.3V27.2z"/>
				<path class="st7" d="M81.3,16.7v10.5c0,1,0.4,1.3,1.1,1.3c0.7,0,1.1-0.4,1.1-1.3V16.7h2V27c0,2.2-1.1,3.4-3.1,3.4
					c-2,0-3.1-1.2-3.1-3.4V16.7H81.3z"/>
				<path class="st7" d="M88.6,20.4v9.9h-1.9V16.7h2.6l2.1,8.2v-8.2h1.8v13.6h-2.1L88.6,20.4z"/>
				<path class="st7" d="M97.9,22.7h2.9V27c0,2.2-1.1,3.4-3.1,3.4c-2,0-3.1-1.2-3.1-3.4v-7.1c0-2.2,1.1-3.4,3.1-3.4
					c2,0,3.1,1.2,3.1,3.4v1.3h-2v-1.5c0-1-0.4-1.3-1.1-1.3c-0.7,0-1.1,0.4-1.1,1.3v7.4c0,1,0.4,1.3,1.1,1.3c0.7,0,1.1-0.4,1.1-1.3
					v-2.5h-0.9V22.7L97.9,22.7z"/>
			</g>
			<g id="Layer_5_1_">
				<path class="st7" d="M54.6,36.9L54,42.1h-2L51,32.3h1.4l0.8,7.7l0.7-7.7h1.4l0.7,7.8l0.8-7.8h1.3l-1.1,9.8h-2L54.6,36.9z"/>
				<path class="st7" d="M60.4,36.4h2v1.4h-2v2.9H63v1.4h-4.1v-9.8H63v1.4h-2.6V36.4L60.4,36.4z"/>
				<path class="st7" d="M68.3,34.5v0.3c0,1-0.3,1.6-1,2c0.8,0.3,1.1,1.1,1.1,2.1v0.8c0,1.5-0.8,2.3-2.3,2.3h-2.3v-9.8h2.2
					C67.7,32.3,68.3,33,68.3,34.5z M65.4,33.7v2.6h0.6c0.6,0,0.9-0.3,0.9-1v-0.5c0-0.7-0.2-1-0.8-1H65.4z M65.4,37.7v3h0.9
					c0.5,0,0.8-0.2,0.8-1v-0.9c0-0.9-0.3-1.2-1-1.2H65.4L65.4,37.7z"/>
				<path class="st7" d="M72.5,39.2l1-6.9h2.1v9.8h-1.4v-7l-1,7h-1.4l-1.1-6.9v6.9h-1.3v-9.8h2.1L72.5,39.2z"/>
				<path class="st7" d="M81.5,42.1H80l-0.3-1.8h-1.8l-0.3,1.8h-1.4l1.5-9.8H80L81.5,42.1z M78.1,39h1.4L78.8,34L78.1,39z"/>
				<path class="st7" d="M84.2,32.2c1.4,0,2.2,0.9,2.2,2.5v0.3h-1.4v-0.4c0-0.7-0.3-1-0.7-1c-0.5,0-0.7,0.3-0.7,1
					c0,2,2.9,2.4,2.9,5.2c0,1.6-0.8,2.5-2.2,2.5s-2.2-0.9-2.2-2.5v-0.6h1.4v0.7c0,0.7,0.3,0.9,0.8,0.9c0.5,0,0.8-0.3,0.8-0.9
					c0-2-2.9-2.4-2.9-5.2C82,33.1,82.7,32.2,84.2,32.2z"/>
				<path class="st7" d="M86.8,32.3h4.6v1.4h-1.6v8.4h-1.5v-8.4h-1.6V32.3L86.8,32.3z"/>
				<path class="st7" d="M93.5,36.4h2v1.4h-2v2.9h2.6v1.4H92v-9.8h4.1v1.4h-2.6V36.4z"/>
				<path class="st7" d="M100.1,42.1c-0.1-0.2-0.1-0.4-0.1-1.2v-1.5c0-0.9-0.3-1.2-1-1.2h-0.5v4H97v-9.8h2.2c1.5,0,2.2,0.7,2.2,2.2
					v0.8c0,1-0.3,1.7-1,2c0.7,0.3,1,1.1,1,2.1v1.5c0,0.5,0,0.8,0.2,1.2L100.1,42.1L100.1,42.1z M98.5,33.7v3h0.6
					c0.6,0,0.9-0.3,0.9-1v-1c0-0.7-0.2-1-0.8-1L98.5,33.7L98.5,33.7z"/>
			</g>
			<g id="Layer_4_1_">
				<path class="st7" d="M84,50.4v1.3c0,1.6-0.8,2.5-2.2,2.5s-2.2-0.9-2.2-2.5v-5.1c0-1.6,0.8-2.5,2.2-2.5S84,45,84,46.6v0.9h-1.4
					v-1c0-0.7-0.3-1-0.8-1c-0.5,0-0.8,0.3-0.8,1v5.3c0,0.7,0.3,0.9,0.8,0.9c0.5,0,0.8-0.3,0.8-0.9v-1.4H84L84,50.4z"/>
				<path class="st7" d="M89.7,54h-1.5l-0.3-1.8h-1.8L85.8,54h-1.4l1.5-9.8h2.2L89.7,54z M86.3,50.9h1.4L87,46L86.3,50.9z"/>
				<path class="st7" d="M93.5,51.2l1-6.9h2.1V54h-1.4v-7l-1,7h-1.4l-1.1-6.9V54h-1.3v-9.8h2.1L93.5,51.2z"/>
				<path class="st7" d="M102.1,46.7v1.3c0,1.6-0.7,2.4-2.2,2.4h-0.7V54h-1.5v-9.8h2.2C101.4,44.3,102.1,45.1,102.1,46.7z
					 M99.2,45.7V49h0.7c0.5,0,0.7-0.2,0.7-0.9v-1.5c0-0.7-0.3-0.9-0.7-0.9H99.2z"/>
			</g>
		</g>
	</g>
</g>
</svg>
