<?xml version="1.0" encoding="utf-8"?>
<!-- Generator: Adobe Illustrator 19.0.0, SVG Export Plug-In . SVG Version: 6.00 Build 0)  -->
<svg version="1.1" id="Layer_1" xmlns="http://www.w3.org/2000/svg" xmlns:xlink="http://www.w3.org/1999/xlink" x="0px" y="0px"
	 viewBox="341.9 389.2 27.6 27.6" style="enable-background:new 341.9 389.2 27.6 27.6;" xml:space="preserve">
<style type="text/css">
	.st0{fill:#FFFFFF;}
	.st1{fill:none;stroke:#FFFFFF;stroke-miterlimit:10;}
</style>
<g id="Layer_2">
	<g>
		<path class="st0" d="M350.4,405.7v-7.4c0,0-0.2-2.3,1.8-2.3c0,0,1.8-0.1,1.8,1.4v2.3h6c0,0,1.5,0.4,1.4,2.1c0,0-0.2,1.5-1.7,1.7
			h-5.6v2c0,0-0.1,1.6,1.4,1.6h4.2c0,0,1.7,0,1.8,2c0,0-0.1,1.7-1.8,1.8h-4.1C355.6,410.8,350.4,410.6,350.4,405.7z"/>
		<circle class="st1" cx="355.7" cy="403" r="13.3"/>
	</g>
</g>
</svg>
