<?xml version="1.0" encoding="utf-8"?>
<!-- Generator: Adobe Illustrator 19.0.0, SVG Export Plug-In . SVG Version: 6.00 Build 0)  -->
<svg version="1.1" id="Layer_1" xmlns="http://www.w3.org/2000/svg" xmlns:xlink="http://www.w3.org/1999/xlink" x="0px" y="0px"
	 viewBox="257.2 432.2 27.6 27.6" style="enable-background:new 257.2 432.2 27.6 27.6;" xml:space="preserve">
<style type="text/css">
	.st0{fill:#FFFFFF;}
	.st1{fill:none;stroke:#FFFFFF;stroke-miterlimit:10;}
</style>
<g id="Layer_2">
	<g>
		<g>
			<g>
				<polygon class="st0" points="267.7,440 267.1,437.6 266.1,437.6 267.3,441.2 267.3,443.7 268.2,443.7 268.2,441.2 269.3,437.6 
					268.4,437.6 				"/>
				<path class="st0" d="M274,439.2v3.5c-0.7,0.7-0.7,0.2-0.7,0.2v-3.6h-0.8v3.8c0,0.4,0.2,0.6,0.2,0.6c0.6,0.6,1.4-0.3,1.4-0.3v0.5
					h0.8v-4.5H274V439.2z"/>
				<path class="st0" d="M270.5,439.1c-1.2,0-1.2,1.2-1.2,1.2s0,1.2,0,2.3c0,1.1,1.2,1.1,1.2,1.1c1.2,0,1.2-1.2,1.2-1.2v-2.4
					C271.7,439,270.5,439.1,270.5,439.1z M270.8,442.5c0,0,0,0.4-0.3,0.4c0,0-0.4,0.1-0.4-0.4v-2.3c0,0,0-0.3,0.4-0.4
					c0,0,0.3,0,0.3,0.4V442.5z"/>
			</g>
			<g>
				<path class="st0" d="M275.4,448.4c-0.4,0-0.4,0.5-0.4,0.5v0.6h0.8v-0.6C275.8,448.9,275.8,448.4,275.4,448.4z"/>
				<path class="st0" d="M277.5,446.3c-0.2-1.3-1.3-1.5-1.3-1.5c-6-0.5-10.5,0-10.5,0c-1.1,0.3-1.3,1.5-1.3,1.5
					c-0.3,0.8-0.1,5.2-0.1,5.2c0.1,2.4,1.7,2.4,1.7,2.4c4.2,0.4,10,0,10,0c1.5-0.2,1.6-1.4,1.6-1.4
					C278,449.8,277.5,446.3,277.5,446.3z M267.8,447h-1v5.3h-0.9V447h-1v-0.9h2.9V447z M270.4,452.3h-0.8v-0.5c0,0-1.6,1.4-1.6-0.3
					c0-1.7,0-3.9,0-3.9h0.8v3.7c0,0,0,0.6,0.7-0.2v-3.6h0.9V452.3z M273.5,451.5c0,0-0.1,1.6-1.6,0.4v0.5h-0.8v-6.2h0.8v2
					c0,0,1.5-1.4,1.6,0.5V451.5z M276.6,450.1H275c0,0,0,0.4,0,0.9c0,0.6,0.4,0.5,0.4,0.5c0.3,0,0.4-0.4,0.4-0.4v-0.5h0.8v0.6
					c0,1-1.1,1-1.1,1c-1.3,0-1.3-1.2-1.3-1.2s0-1,0-2.3s1.3-1.3,1.3-1.3c1.1,0,1.2,1.2,1.2,1.2L276.6,450.1L276.6,450.1z"/>
				<path class="st0" d="M271.9,448.6v2.8c0.7,0.4,0.8-0.1,0.8-0.1s0-1.7,0-2.5C272.7,448,271.9,448.6,271.9,448.6z"/>
			</g>
		</g>
		<circle class="st1" cx="271" cy="446" r="13.3"/>
	</g>
</g>
</svg>
