<?xml version="1.0" encoding="utf-8"?>
<!-- Generator: Adobe Illustrator 16.0.0, SVG Export Plug-In . SVG Version: 6.00 Build 0)  -->
<!DOCTYPE svg PUBLIC "-//W3C//DTD SVG 1.1//EN" "http://www.w3.org/Graphics/SVG/1.1/DTD/svg11.dtd">
<svg version="1.1" id="Layer_1" xmlns="http://www.w3.org/2000/svg" xmlns:xlink="http://www.w3.org/1999/xlink" x="0px" y="0px"
	 width="301.315px" height="89.784px" viewBox="0 0 301.315 89.784" enable-background="new 0 0 301.315 89.784"
	 xml:space="preserve">
<g id="XMLID_3_">
	<g id="XMLID_30_">
		<g id="XMLID_134_">
			<path id="XMLID_143_" fill="#010101" d="M14.965,17.604c-0.548-0.863-0.22-1.254,1.096-1.333
				c7.668-0.47,17.529-4.311,24.869-4.625c5.587-0.235,10.956,1.02,12.928,6.349c1.971,5.252-0.11,9.641-3.835,13.089
				c-3.177,2.901-8.983,6.82-17.091,9.328c2.082,0.705,3.835,1.802,5.259,3.292c2.301,2.43,2.191,7.054-2.52,10.737
				c-4.82,3.763-13.037,6.507-19.172,7.29c-4.163,0.549-6.793,0.471-9.203-0.393c-2.191-0.783-4.164-2.115-5.588-3.604
				c-1.643-1.725-2.739-2.979-0.219-7.995c4.382-8.778,12.708-20.222,20.925-29C18.032,20.582,15.731,18.857,14.965,17.604z
				 M21.209,42.685c-3.068,0.235-5.259,0-6.793-0.548c-2.958,4.075-5.697,8.23-7.34,12.148c-1.206,2.743,0,3.685,3.506,3.37
				c7.012-0.627,16.433-3.841,21.145-7.994c4.053-3.606,4.053-7.133-5.916-7.524C24.276,42.371,22.743,42.528,21.209,42.685z
				 M49.803,18.701c-2.19-4.075-13.037-0.47-20.596,1.254c0.219,1.724-0.548,4.076-3.287,7.682
				c-2.191,2.899-5.367,6.583-8.545,10.581C39.066,34.612,52.542,24.031,49.803,18.701z"/>
			<path id="XMLID_141_" fill="#010101" d="M51.12,61.809c-7.778-0.392-7.997-6.192-5.587-11.364
				c2.41-5.173,7.998-12.854,15.119-19.987c0.876-0.862,1.971-0.784,2.848-0.078c2.411,2.586,1.862,6.113-2.081,10.581
				c-4.054,4.624-6.245,7.759-8.546,11.521c-2.3,3.841-1.972,6.663,0.548,6.818c4.273,0.235,10.298-5.25,16.214-12.069
				c6.903-7.995,10.08-13.403,13.585-16.773c1.096-1.098,1.862-1.254,2.739-0.47c1.644,1.411,2.52,4.859-0.11,8.778
				c-2.41,3.527-7.888,9.406-10.408,13.403c-2.848,4.468-2.41,7.76,1.534,7.604c4.602-0.157,10.188-5.331,14.461-10.817
				c0.548-0.705,1.535-0.783,1.972-0.078c0.438,0.627,0.548,2.744-0.986,4.938c-3.177,4.39-9.969,8.388-16.433,8.388
				c-7.122,0-9.969-3.214-9.094-7.761C63.062,58.125,57.256,62.123,51.12,61.809z"/>
			<path id="XMLID_137_" fill="#010101" d="M113.897,64.003c-6.025,10.503-13.804,22.965-22.678,25.474
				c-2.191,0.627-4.382,0.393-6.354-1.646c-2.301-2.352-4.273-5.095-2.191-9.72c3.176-7.054,12.599-11.835,23.444-14.813
				c1.096-1.725,2.082-3.605,3.178-5.408c-3.178,2.273-7.012,3.919-11.065,3.919c-10.079,0-12.051-9.798-3.177-19.203
				c8.545-9.092,17.419-12.619,23.007-12.619c4.382,0,6.573,2.43,6.463,5.173c1.315-1.568,2.52-2.978,3.616-4.311
				c0.876-1.098,1.972-1.176,2.739-0.47c1.643,1.411,2.52,4.781-0.219,8.622c-3.287,4.703-10.188,14.186-14.79,21.79
				c9.203-3.293,15.228-7.604,19.61-11.757c0.657-0.627,1.644-0.627,1.863,0.156c0.218,0.705-0.329,2.431-2.191,4.546
				C130.878,58.517,122.99,61.653,113.897,64.003z M87.056,85.087c1.424,1.489,10.08-6.662,17.2-18.575
				C90.015,72.468,85.194,83.207,87.056,85.087z M119.704,33.985c-3.396-0.157-11.394,4.859-17.419,11.678
				c-5.917,6.741-7.121,13.637-2.739,13.716c4.272,0.078,9.86-4.859,15.447-11.757C121.895,39.001,122.881,34.142,119.704,33.985z"
				/>
			<path id="XMLID_135_" fill="#010101" d="M166.704,34.846c2.301,3.292-2.081,7.446-4.273,11.679
				c-0.438,0.94-0.876,1.176-2.3,0.628c-2.629-0.941-4.163-3.292-2.629-6.819c1.204-2.822,4.491-6.192,2.957-7.054
				c-1.862-1.097-10.079,3.919-15.008,11.051c-6.026,8.856-3.725,15.362,2.738,15.441c9.203,0.077,17.092-6.192,21.583-11.131
				c0.548-0.627,1.534-0.705,1.973,0.078c0.328,0.628-0.109,2.587-1.973,4.704c-4.163,4.623-12.818,8.464-21.144,8.543
				c-13.914,0.156-18.625-9.562-11.503-19.674c7.011-9.875,18.076-14.108,23.555-11.757
				C163.636,31.79,165.389,33.044,166.704,34.846z"/>
		</g>
	</g>
	<g id="XMLID_14_">
		<g id="XMLID_84_">
			<path id="XMLID_88_" fill="#010101" d="M260.02,59.615c5.259,0.313,12.928-5.33,17.201-11.365c0.766-1.019,1.972-1.097,2.409,0
				c0.549,1.254,0.11,2.979-1.096,4.859c-1.533,2.352-9.531,8.857-18.296,8.7c-7.559-0.156-11.612-3.919-9.092-12.384
				c4.053-13.638,16.542-27.824,27.717-36.133c1.644-1.254,3.177-1.411,4.711-0.392c3.178,2.038,3.834,4.938,2.52,8.622
				c-3.396,9.64-15.666,19.046-25.416,23.592C256.295,52.795,255.09,59.3,260.02,59.615z M282.37,19.876
				c-1.424-0.626-9.531,8.073-17.091,18.106c-0.985,1.254-1.862,2.508-2.629,3.762C277.659,33.044,283.793,20.503,282.37,19.876z"/>
			<path id="XMLID_85_" fill="#010101" d="M275.359,50.522c2.739-5.721,9.97-14.97,14.023-19.045
				c0.986-0.941,1.753-1.175,2.629-0.471c1.644,1.254,2.52,4.625-0.109,8.544c-2.301,3.448-6.902,8.778-9.203,12.698
				c-2.63,4.545-2.41,7.602,1.096,7.445c4.93-0.157,10.956-5.33,14.242-10.738c0.548-0.705,1.314-0.627,1.753,0
				c0.877,1.255,0.548,2.9-0.767,4.859c-3.287,4.86-10.189,8.152-16.324,8.152C274.373,61.966,272.292,56.95,275.359,50.522z
				 M299.79,30.065c-1.424,1.097-4.491,0.863-6.135-1.175c-1.753-2.116-1.205-4.468,0.548-5.8c1.752-1.333,4.93-0.392,6.354,1.724
				C301.98,26.852,301.213,28.969,299.79,30.065z"/>
		</g>
	</g>
	<g id="XMLID_4_">
		<g id="XMLID_6_">
			<path id="XMLID_7_" fill="#010101" d="M212.931,71.303c0.858,0.173,1.725,0.289,2.597,0.36c1.67,0.136,3.338,0.278,4.999,0.499
				c0.228,0.031,0.451,0.098,0.673,0.16c0.11,0.03,0.232,0.083,0.228,0.226c-0.005,0.131-0.111,0.209-0.218,0.248
				c-0.379,0.142-0.755,0.3-1.146,0.396c-1.315,0.321-2.651,0.532-4.002,0.63c-3.21,0.232-6.398,0.055-9.556-0.573
				c-3.422-0.681-6.678-1.827-9.758-3.482c-3.007-1.616-5.705-3.639-8.089-6.075c-1.753-1.79-3.284-3.756-4.569-5.91
				c-0.057-0.096-0.118-0.188-0.198-0.271c0.258,1.302,0.719,2.53,1.267,3.729c1.251,2.735,3.022,5.104,5.154,7.206
				c1.438,1.415,3.049,2.618,4.717,3.747c0.564,0.382,1.127,0.766,1.685,1.157c0.086,0.06,0.246,0.138,0.182,0.259
				c-0.079,0.148-0.231,0.031-0.339-0.005c-1.33-0.457-2.551-1.138-3.76-1.842c-2.086-1.215-3.995-2.671-5.769-4.302
				c-1.74-1.601-3.29-3.373-4.663-5.299c-1.13-1.585-2.116-3.256-2.967-5.004c-0.435-0.894-0.822-1.81-1.166-2.743
				c-0.046-0.124-0.09-0.249-0.168-0.365c-0.004,0.604,0.067,1.202-0.035,1.797c-0.024,0.146,0.006,0.332-0.171,0.383
				c-0.195,0.058-0.289-0.123-0.37-0.253c-0.446-0.723-0.739-1.516-1.007-2.315c-0.812-2.434-1.312-4.929-1.549-7.484
				c-0.229-2.461-0.197-4.909,0.066-7.365c0.321-2.995,1.01-5.897,2.084-8.706c1.341-3.507,3.226-6.697,5.683-9.542
				c0.952-1.103,1.985-2.126,3.098-3.133c-0.147-0.021-0.239,0.038-0.333,0.081c-2.03,0.943-3.851,2.189-5.473,3.735
				c-2.176,2.072-3.877,4.481-5.217,7.163c-0.626,1.252-1.157,2.545-1.738,3.816c-0.064,0.139-0.1,0.386-0.281,0.332
				c-0.18-0.054-0.079-0.284-0.053-0.433c0.3-1.705,0.868-3.331,1.515-4.928c0.865-2.137,1.942-4.166,3.229-6.082
				c1.673-2.491,3.653-4.706,5.925-6.663c0.042-0.036,0.081-0.076,0.165-0.155c-0.196,0.002-0.304,0.088-0.418,0.145
				c-0.837,0.42-1.675,0.837-2.563,1.139c-0.191,0.065-0.452,0.241-0.601,0.01c-0.134-0.208,0.083-0.414,0.214-0.579
				c0.577-0.727,1.273-1.338,1.975-1.939c1.871-1.601,3.927-2.928,6.115-4.048c2.551-1.305,5.22-2.286,8.017-2.94
				c2.615-0.611,5.26-0.896,7.938-0.854c3.639,0.056,7.162,0.745,10.571,2.016c1.224,0.456,2.404,1.013,3.604,1.651
				c-0.337-0.36-0.612-0.706-0.938-0.996c-2.308-2.053-4.976-3.465-7.913-4.381c-2.163-0.674-4.379-1.04-6.642-1.141
				c-0.958-0.042-1.914-0.106-2.87-0.168c-0.105-0.007-0.281,0.016-0.292-0.123c-0.012-0.163,0.177-0.153,0.288-0.186
				c0.592-0.172,1.203-0.229,1.813-0.279c2.915-0.236,5.811-0.112,8.694,0.42c3.499,0.646,6.797,1.827,9.899,3.566
				c0.089,0.05,0.184,0.09,0.291,0.113c-0.379-0.394-0.826-0.703-1.259-1.027c-1.525-1.145-3.128-2.181-4.675-3.294
				c-0.365-0.262-0.7-0.567-1.041-0.862c-0.117-0.102-0.279-0.225-0.182-0.405c0.092-0.167,0.287-0.141,0.441-0.107
				c0.497,0.107,1.001,0.198,1.483,0.354c2.187,0.706,4.257,1.671,6.232,2.843c2.547,1.51,4.884,3.301,6.996,5.37
				c2.036,1.995,3.829,4.194,5.339,6.622c1.102,1.771,2.064,3.609,2.845,5.544c1.068,2.649,1.804,5.385,2.192,8.217
				c0.153,1.111,0.234,2.228,0.311,3.345c0.003,0.056,0.014,0.112,0.09,0.178c0.129-0.637,0.283-1.271,0.384-1.912
				c0.438-2.814,0.346-5.615-0.211-8.408c-0.395-1.981-1.013-3.886-1.807-5.741c-0.604-1.415-1.314-2.777-1.991-4.157
				c-0.082-0.168-0.284-0.428-0.137-0.518c0.199-0.121,0.33,0.182,0.451,0.328c0.886,1.058,1.617,2.224,2.303,3.417
				c1.004,1.746,1.845,3.57,2.543,5.459c0.958,2.592,1.589,5.263,1.932,8.002c0.239,1.909,0.28,3.828,0.202,5.746
				c-0.134,3.274-0.7,6.473-1.816,9.564c-0.256,0.708-0.538,1.402-0.885,2.07c-0.037,0.071-0.078,0.143-0.125,0.207
				c-0.095,0.128-0.176,0.311-0.365,0.269c-0.197-0.043-0.184-0.248-0.205-0.401c-0.035-0.239-0.01-0.484-0.088-0.72
				c-0.127-0.388-0.373-0.518-0.748-0.356c-0.724,0.31-1.258,0.891-1.889,1.333c-0.851,0.597-1.155,1.537-1.629,2.371
				c-1.053,1.856-2.279,3.586-3.693,5.184c-1.829,2.066-3.926,3.814-6.273,5.26c-2.107,1.296-4.348,2.292-6.721,3.001
				c-1.073,0.321-2.114,0.741-3.199,1.034c-1.7,0.459-3.428,0.751-5.184,0.885c-1.408,0.107-2.816,0.112-4.225,0.009
				c-0.033-0.002-0.067,0.01-0.157,0.024c0.334,0.418,0.616,0.823,1.168,0.927c0.943,0.178,1.891,0.329,2.849,0.38
				c3.422,0.179,6.781-0.122,10.058-1.211c2.209-0.735,4.285-1.722,6.237-2.977c1.535-0.986,2.906-2.177,4.155-3.497
				c2.168-2.291,4.324-4.594,6.439-6.934c1.23-1.36,2.368-2.806,3.556-4.205c0.352-0.414,0.697-0.835,1.121-1.18
				c0.118-0.097,0.247-0.271,0.418-0.169c0.179,0.107,0.108,0.314,0.077,0.479c-0.094,0.479-0.254,0.939-0.438,1.388
				c-0.637,1.555-1.418,3.035-2.312,4.456c-1.379,2.19-2.997,4.193-4.826,6.019c-2.404,2.398-5.104,4.4-8.118,5.979
				c-2.171,1.138-4.44,2.013-6.812,2.615c-2.796,0.71-5.64,0.99-8.522,0.872c-0.148-0.006-0.298-0.001-0.466-0.001
				c0.028,0.13,0.135,0.126,0.207,0.153c2.455,0.937,5.004,1.301,7.619,1.197c2.534-0.101,4.994-0.6,7.38-1.473
				c1.184-0.432,2.347-0.913,3.513-1.388c0.16-0.065,0.403-0.237,0.504-0.07c0.117,0.196-0.172,0.284-0.306,0.382
				c-1.434,1.055-3.017,1.841-4.641,2.548c-2.59,1.126-5.289,1.886-8.084,2.275C215.521,71.191,214.23,71.311,212.931,71.303z
				 M208.581,61.979c1.186,0.05,2.761-0.136,4.317-0.414c1.881-0.338,3.701-0.9,5.463-1.656c2.354-1.011,4.512-2.336,6.453-4.004
				c2.209-1.898,4.065-4.093,5.506-6.636c1.096-1.934,1.935-3.97,2.466-6.123c0.663-2.69,0.855-5.419,0.6-8.187
				c-0.281-3.055-1.133-5.936-2.502-8.667c-0.69-1.376-1.515-2.672-2.458-3.893c-1.616-2.094-3.514-3.89-5.691-5.386
				c-1.47-1.01-3.036-1.849-4.687-2.535c-2.949-1.226-6.026-1.845-9.206-1.945c-2.204-0.07-4.382,0.185-6.533,0.676
				c-2.592,0.592-5.026,1.578-7.303,2.937c-2.156,1.287-4.08,2.865-5.767,4.732c-1.529,1.692-2.818,3.546-3.825,5.589
				c-1.236,2.508-2.029,5.148-2.356,7.934c-0.267,2.28-0.224,4.55,0.144,6.805c0.551,3.387,1.795,6.519,3.673,9.392
				c1.519,2.322,3.396,4.325,5.581,6.027c1.71,1.332,3.567,2.426,5.569,3.28C201.27,61.291,204.65,61.976,208.581,61.979z
				 M228.543,12.029c0.548,0.681,1.096,1.35,1.561,2.083c0.104,0.167,0.212,0.332,0.269,0.522c0.034,0.113,0.058,0.232-0.045,0.322
				c-0.091,0.08-0.197,0.048-0.295,0.007c-0.191-0.081-0.376-0.183-0.572-0.247c-0.506-0.162-0.819,0.049-0.856,0.579
				c-0.041,0.591,0.005,1.177,0.119,1.759c0.099,0.497,0.062,1.054,0.338,1.476c0.599,0.92,1.062,1.922,1.715,2.808
				c0.35,0.474,0.691,0.956,1.007,1.453c1.461,2.31,2.575,4.773,3.286,7.418c0.501,1.86,0.819,3.744,0.899,5.669
				c0.034,0.82,0.095,1.638,0.007,2.458c-0.014,0.129,0.014,0.269,0.185,0.167c0.734-0.438,1.249-1.077,1.629-1.832
				c0.01-0.019,0.007-0.045,0.008-0.069c0.045-1.05,0.143-2.101,0.123-3.15c-0.026-1.407-0.103-2.813-0.315-4.212
				c-0.457-2.994-1.332-5.855-2.632-8.585c-1.169-2.456-2.649-4.712-4.468-6.738C229.897,13.242,229.253,12.598,228.543,12.029z
				 M201.635,69.407c-0.06-0.132-0.138-0.126-0.197-0.151c-1.153-0.48-2.288-1-3.335-1.688c-0.145-0.095-0.291-0.195-0.406-0.32
				c-0.199-0.217-0.146-0.387,0.14-0.439c0.227-0.041,0.46-0.035,0.689-0.058c0.437-0.042,0.64-0.321,0.533-0.743
				c-0.037-0.145-0.103-0.282-0.162-0.42c-0.315-0.738-0.782-1.388-1.208-2.062c-0.12-0.191-0.275-0.342-0.463-0.459
				c-1.021-0.639-1.951-1.4-2.913-2.12c-1.015-0.761-2.142-1.363-3.15-2.141c-1.211-0.933-2.358-1.937-3.403-3.048
				c-1.382-1.469-2.597-3.068-3.626-4.805c-0.119-0.2-0.194-0.192-0.298,0.007c-0.243,0.472-0.306,0.987-0.409,1.497
				c-0.086,0.426,0.012,0.801,0.19,1.169c0.308,0.634,0.604,1.275,0.945,1.891c1.817,3.277,4.126,6.149,7.02,8.55
				c2.479,2.059,5.225,3.645,8.241,4.765C200.403,69.047,201.003,69.208,201.635,69.407z M221.391,13.248
				c-0.108-0.587-0.289-0.876-0.7-1.162c-1.725-1.198-3.556-2.196-5.508-2.978c-2.838-1.137-5.786-1.779-8.833-1.917
				c-3-0.136-5.957,0.159-8.823,1.12c-0.745,0.25-1.493,0.495-2.214,0.81c-0.41,0.179-0.472,0.62-0.146,0.925
				c0.139,0.131,0.311,0.196,0.479,0.271c0.728,0.319,1.511,0.424,2.274,0.605c0.254,0.061,0.495,0.066,0.751,0.011
				c0.948-0.208,1.91-0.334,2.872-0.466c0.861-0.118,1.73-0.081,2.592-0.173c1.184-0.126,2.365-0.262,3.556-0.292
				c1.204-0.03,2.4,0.068,3.597,0.191c2.935,0.301,5.742,1.064,8.431,2.273C220.265,12.714,220.804,12.974,221.391,13.248z
				 M190.501,16.202c-0.322,0.053-0.537,0.054-0.742,0.191c-0.662,0.445-1.296,0.925-1.92,1.423
				c-1.396,1.115-2.661,2.363-3.805,3.731c-2.039,2.441-3.634,5.146-4.749,8.13c-1.011,2.706-1.631,5.49-1.669,8.386
				c-0.036,2.692-0.03,5.384,0.052,8.076c0.005,0.152-0.08,0.371,0.105,0.437c0.194,0.068,0.336-0.113,0.458-0.25
				c0.092-0.104,0.169-0.221,0.239-0.339c0.296-0.5,0.481-1.049,0.706-1.581c0.278-0.657,0.393-1.329,0.367-2.054
				c-0.075-2.131,0.091-4.249,0.518-6.341c0.181-0.882,0.431-1.752,0.576-2.64c0.388-2.359,1.005-4.648,1.973-6.839
				c0.773-1.75,1.715-3.399,2.835-4.954c1.07-1.487,2.275-2.846,3.613-4.096C189.502,17.068,189.974,16.686,190.501,16.202z"/>
		</g>
		<circle id="XMLID_5_" fill="none" stroke="#010101" stroke-miterlimit="10" cx="207.914" cy="38.149" r="37.501"/>
	</g>
</g>
</svg>
