<?xml version="1.0" encoding="utf-8"?>
<!-- Generator: Adobe Illustrator 19.0.0, SVG Export Plug-In . SVG Version: 6.00 Build 0)  -->
<svg version="1.1" id="Layer_1" xmlns="http://www.w3.org/2000/svg" xmlns:xlink="http://www.w3.org/1999/xlink" x="0px" y="0px"
	 viewBox="419 422 96 86" style="enable-background:new 419 422 96 86;" xml:space="preserve">
<style type="text/css">
	.st0{display:none;}
	.st1{display:inline;stroke:#000000;stroke-miterlimit:10;}
	.st2{display:inline;}
	.st3{fill:none;stroke:#FFFFFF;stroke-miterlimit:10;}
</style>
<g id="Layer_1_1_" class="st0">
	<rect id="XMLID_1_" class="st1" width="1069.7" height="1033.1"/>
</g>
<g id="Layer_2" class="st0">
	<g class="st2">
		<g>
			<g>
				<g>
					<circle class="st3" cx="414" cy="643.7" r="83.4"/>
				</g>
			</g>
		</g>
	</g>
</g>
<g id="Layer_3">
	<g id="วันจัดค่าย">
		<g id="calendar">
			<line class="st3" x1="420" y1="443.5" x2="514" y2="443.5"/>
			<rect x="429.5" y="422.5" class="st3" width="7" height="14"/>
			<rect x="497.5" y="423.5" class="st3" width="7" height="14"/>
			<polyline class="st3" points="429,429.5 419.5,429.5 419.5,507.5 514.5,507.5 514.5,429.5 505,429.5 			"/>
			<line class="st3" x1="497" y1="429.5" x2="436" y2="429.5"/>
			<g>
				<line class="st3" x1="429" y1="456.5" x2="435" y2="456.5"/>
				<line class="st3" x1="429" y1="463.5" x2="435" y2="463.5"/>
				<line class="st3" x1="429" y1="471.5" x2="435" y2="471.5"/>
				<line class="st3" x1="429" y1="479.5" x2="435" y2="479.5"/>
				<line class="st3" x1="446" y1="456.5" x2="452" y2="456.5"/>
				<line class="st3" x1="446" y1="463.5" x2="452" y2="463.5"/>
				<line class="st3" x1="446" y1="471.5" x2="452" y2="471.5"/>
				<line class="st3" x1="446" y1="479.5" x2="452" y2="479.5"/>
				<line class="st3" x1="463" y1="456.5" x2="469" y2="456.5"/>
				<line class="st3" x1="463" y1="463.5" x2="469" y2="463.5"/>
				<line class="st3" x1="463" y1="471.5" x2="469" y2="471.5"/>
				<line class="st3" x1="463" y1="479.5" x2="469" y2="479.5"/>
				<line class="st3" x1="481" y1="456.5" x2="486" y2="456.5"/>
				<line class="st3" x1="481" y1="463.5" x2="486" y2="463.5"/>
				<line class="st3" x1="481" y1="471.5" x2="486" y2="471.5"/>
				<line class="st3" x1="481" y1="479.5" x2="486" y2="479.5"/>
				<line class="st3" x1="496" y1="456.5" x2="503" y2="456.5"/>
				<line class="st3" x1="496" y1="463.5" x2="503" y2="463.5"/>
				<line class="st3" x1="496" y1="471.5" x2="503" y2="471.5"/>
				<line class="st3" x1="496" y1="479.5" x2="503" y2="479.5"/>
				<line class="st3" x1="429" y1="488.5" x2="435" y2="488.5"/>
				<line class="st3" x1="446" y1="488.5" x2="452" y2="488.5"/>
				<line class="st3" x1="463" y1="488.5" x2="469" y2="488.5"/>
				<line class="st3" x1="481" y1="488.5" x2="486" y2="488.5"/>
				<line class="st3" x1="496" y1="488.5" x2="503" y2="488.5"/>
			</g>
		</g>
	</g>
</g>
</svg>
