<?xml version="1.0" encoding="utf-8"?>
<!-- Generator: Adobe Illustrator 19.0.0, SVG Export Plug-In . SVG Version: 6.00 Build 0)  -->
<svg version="1.1" id="Layer_1" xmlns="http://www.w3.org/2000/svg" xmlns:xlink="http://www.w3.org/1999/xlink" x="0px" y="0px"
	 viewBox="402 452.4 130 86.6" style="enable-background:new 402 452.4 130 86.6;" xml:space="preserve">
<style type="text/css">
	.st0{display:none;}
	.st1{display:inline;stroke:#000000;stroke-miterlimit:10;}
	.st2{display:inline;}
	.st3{fill:none;stroke:#FFFFFF;stroke-miterlimit:10;}
</style>
<g id="Layer_1_1_" class="st0">
	<rect id="XMLID_1_" class="st1" width="1069.7" height="1033.1"/>
</g>
<g id="Layer_2" class="st0">
	<g class="st2">
		<g>
			<g>
				<g>
					<circle class="st3" cx="414" cy="643.7" r="83.4"/>
				</g>
			</g>
		</g>
	</g>
</g>
<g id="Layer_3">
	<g id="interview">
		<g>
			<circle class="st3" cx="419.8" cy="462.8" r="9.9"/>
			<polygon class="st3" points="427.6,476.5 412.5,476.5 412.5,510.5 434.1,510.5 438.7,538.4 446.9,536.8 441.1,505.5 429.5,505.5 
				429.5,490.2 437,496.3 449.7,491.2 446.1,485.4 438.7,489 			"/>
			<polygon class="st3" points="402.5,479.5 410.5,479.5 410.5,513.5 432.5,513.5 432.5,519.5 429.5,519.5 429.5,537.5 426.5,537.5 
				426.5,519.5 411.5,519.5 411.5,537.5 407.5,537.5 407.5,519.5 402.5,519.5 			"/>
		</g>
		<g>
			<circle class="st3" cx="514.7" cy="462.8" r="9.9"/>
			<polygon class="st3" points="506.9,476.5 520.5,476.5 520.5,510.5 500.4,510.5 495.8,538.4 487.5,536.8 493.3,505.5 504.5,505.5 
				504.5,490.2 497.2,496.3 484.7,491.2 488.3,485.4 495.8,489 			"/>
			<polygon class="st3" points="531.5,479.5 523.5,479.5 523.5,513.5 502.5,513.5 502.5,519.5 505.5,519.5 505.5,537.5 508.5,537.5 
				508.5,519.5 522.5,519.5 522.5,537.5 526.5,537.5 526.5,519.5 531.5,519.5 			"/>
		</g>
		<polygon class="st3" points="491.5,496.5 484.3,496.5 450.1,496.5 442.5,496.5 442.5,503.5 449.5,503.5 449.5,535.5 483.5,535.5 
			483.5,503.5 491.5,503.5 		"/>
	</g>
</g>
</svg>
