<?xml version="1.0" encoding="utf-8"?>
<!-- Generator: Adobe Illustrator 19.0.0, SVG Export Plug-In . SVG Version: 6.00 Build 0)  -->
<svg version="1.1" id="Layer_1" xmlns="http://www.w3.org/2000/svg" xmlns:xlink="http://www.w3.org/1999/xlink" x="0px" y="0px"
	 viewBox="421 443 91.8 106" style="enable-background:new 421 443 91.8 106;" xml:space="preserve">
<style type="text/css">
	.st0{display:none;}
	.st1{display:inline;stroke:#000000;stroke-miterlimit:10;}
	.st2{display:inline;}
	.st3{fill:none;stroke:#FFFFFF;stroke-miterlimit:10;}
</style>
<g id="Layer_1_1_" class="st0">
	<rect id="XMLID_1_" class="st1" width="1069.7" height="1033.1"/>
</g>
<g id="Layer_2" class="st0">
	<g class="st2">
		<g>
			<g>
				<g>
					<circle class="st3" cx="414" cy="643.7" r="83.4"/>
				</g>
			</g>
		</g>
	</g>
</g>
<g id="Layer_3">
	<g id="building">
		<g>
			<rect x="451.5" y="469.5" class="st3" width="30" height="79"/>
			<polyline class="st3" points="455.5,469 455.5,463.5 477.5,463.5 477.5,469 			"/>
			<polyline class="st3" points="458,462.4 461.5,450.5 470.5,450.5 474.4,462.5 			"/>
			<line class="st3" x1="465.5" y1="443" x2="465.5" y2="451"/>
			<g>
				<line class="st3" x1="458.5" y1="474" x2="458.5" y2="478"/>
				<line class="st3" x1="463.5" y1="474" x2="463.5" y2="478"/>
				<line class="st3" x1="469.5" y1="474" x2="469.5" y2="478"/>
				<line class="st3" x1="474.5" y1="474" x2="474.5" y2="478"/>
				<g>
					<line class="st3" x1="458.5" y1="483" x2="458.5" y2="488"/>
					<line class="st3" x1="458.5" y1="491" x2="458.5" y2="496"/>
					<line class="st3" x1="458.5" y1="501" x2="458.5" y2="504"/>
					<line class="st3" x1="458.5" y1="510" x2="458.5" y2="515"/>
					<line class="st3" x1="458.5" y1="517" x2="458.5" y2="522"/>
					<line class="st3" x1="458.5" y1="528" x2="458.5" y2="531"/>
					<line class="st3" x1="458.5" y1="536" x2="458.5" y2="541"/>
					<line class="st3" x1="463.5" y1="483" x2="463.5" y2="488"/>
					<line class="st3" x1="463.5" y1="491" x2="463.5" y2="496"/>
					<line class="st3" x1="463.5" y1="501" x2="463.5" y2="504"/>
					<line class="st3" x1="463.5" y1="510" x2="463.5" y2="515"/>
					<line class="st3" x1="463.5" y1="517" x2="463.5" y2="522"/>
					<line class="st3" x1="463.5" y1="528" x2="463.5" y2="531"/>
					<line class="st3" x1="463.5" y1="536" x2="463.5" y2="541"/>
					<line class="st3" x1="469.5" y1="483" x2="469.5" y2="488"/>
					<line class="st3" x1="469.5" y1="491" x2="469.5" y2="496"/>
					<line class="st3" x1="469.5" y1="501" x2="469.5" y2="504"/>
					<line class="st3" x1="469.5" y1="510" x2="469.5" y2="515"/>
					<line class="st3" x1="469.5" y1="517" x2="469.5" y2="522"/>
					<line class="st3" x1="469.5" y1="528" x2="469.5" y2="531"/>
					<line class="st3" x1="469.5" y1="536" x2="469.5" y2="541"/>
					<line class="st3" x1="474.5" y1="483" x2="474.5" y2="488"/>
					<line class="st3" x1="474.5" y1="491" x2="474.5" y2="496"/>
					<line class="st3" x1="474.5" y1="501" x2="474.5" y2="504"/>
					<line class="st3" x1="474.5" y1="510" x2="474.5" y2="515"/>
					<line class="st3" x1="474.5" y1="517" x2="474.5" y2="522"/>
					<line class="st3" x1="474.5" y1="528" x2="474.5" y2="531"/>
					<line class="st3" x1="474.5" y1="536" x2="474.5" y2="541"/>
				</g>
			</g>
		</g>
		<g>
			<polygon class="st3" points="511.6,548.5 487.5,548.5 487.5,481.2 512.3,492.3 			"/>
			<polyline class="st3" points="496,484.5 506.5,484.5 506.5,490 			"/>
			<g>
				<line class="st3" x1="490.5" y1="492" x2="490.5" y2="497"/>
				<line class="st3" x1="495.5" y1="492" x2="495.5" y2="497"/>
				<line class="st3" x1="500.5" y1="492" x2="500.5" y2="497"/>
				<line class="st3" x1="490.5" y1="502" x2="490.5" y2="506"/>
				<line class="st3" x1="490.5" y1="511" x2="490.5" y2="515"/>
				<line class="st3" x1="490.5" y1="519" x2="490.5" y2="524"/>
				<line class="st3" x1="490.5" y1="529" x2="490.5" y2="533"/>
				<line class="st3" x1="490.5" y1="537" x2="490.5" y2="541"/>
				<line class="st3" x1="495.5" y1="502" x2="495.5" y2="506"/>
				<line class="st3" x1="495.5" y1="511" x2="495.5" y2="515"/>
				<line class="st3" x1="495.5" y1="519" x2="495.5" y2="524"/>
				<line class="st3" x1="495.5" y1="529" x2="495.5" y2="533"/>
				<line class="st3" x1="495.5" y1="537" x2="495.5" y2="541"/>
				<line class="st3" x1="500.5" y1="502" x2="500.5" y2="506"/>
				<line class="st3" x1="500.5" y1="511" x2="500.5" y2="515"/>
				<line class="st3" x1="500.5" y1="519" x2="500.5" y2="524"/>
				<line class="st3" x1="500.5" y1="529" x2="500.5" y2="533"/>
				<line class="st3" x1="500.5" y1="537" x2="500.5" y2="541"/>
				<line class="st3" x1="507.5" y1="502" x2="507.5" y2="506"/>
				<line class="st3" x1="507.5" y1="511" x2="507.5" y2="515"/>
				<line class="st3" x1="507.5" y1="519" x2="507.5" y2="524"/>
				<line class="st3" x1="507.5" y1="529" x2="507.5" y2="533"/>
				<line class="st3" x1="507.5" y1="537" x2="507.5" y2="541"/>
			</g>
		</g>
		<g>
			<rect x="421.5" y="496.5" class="st3" width="26" height="52"/>
			<g>
				<line class="st3" x1="425.5" y1="501" x2="425.5" y2="504"/>
				<line class="st3" x1="431.5" y1="501" x2="431.5" y2="504"/>
				<line class="st3" x1="436.5" y1="501" x2="436.5" y2="504"/>
				<line class="st3" x1="442.5" y1="501" x2="442.5" y2="504"/>
				<line class="st3" x1="425.5" y1="510" x2="425.5" y2="515"/>
				<line class="st3" x1="425.5" y1="518" x2="425.5" y2="523"/>
				<line class="st3" x1="425.5" y1="528" x2="425.5" y2="531"/>
				<line class="st3" x1="425.5" y1="537" x2="425.5" y2="541"/>
				<line class="st3" x1="431.5" y1="510" x2="431.5" y2="515"/>
				<line class="st3" x1="431.5" y1="518" x2="431.5" y2="523"/>
				<line class="st3" x1="431.5" y1="528" x2="431.5" y2="531"/>
				<line class="st3" x1="431.5" y1="537" x2="431.5" y2="541"/>
				<line class="st3" x1="436.5" y1="510" x2="436.5" y2="515"/>
				<line class="st3" x1="436.5" y1="518" x2="436.5" y2="523"/>
				<line class="st3" x1="436.5" y1="528" x2="436.5" y2="531"/>
				<line class="st3" x1="436.5" y1="537" x2="436.5" y2="541"/>
				<line class="st3" x1="442.5" y1="510" x2="442.5" y2="515"/>
				<line class="st3" x1="442.5" y1="518" x2="442.5" y2="523"/>
				<line class="st3" x1="442.5" y1="528" x2="442.5" y2="531"/>
				<line class="st3" x1="442.5" y1="537" x2="442.5" y2="541"/>
			</g>
		</g>
	</g>
</g>
</svg>
