<?xml version="1.0" encoding="utf-8"?>
<!-- Generator: Adobe Illustrator 19.0.0, SVG Export Plug-In . SVG Version: 6.00 Build 0)  -->
<svg version="1.1" id="Layer_1" xmlns="http://www.w3.org/2000/svg" xmlns:xlink="http://www.w3.org/1999/xlink" x="0px" y="0px"
	 viewBox="424 418 85.2 94" style="enable-background:new 424 418 85.2 94;" xml:space="preserve">
<style type="text/css">
	.st0{display:none;}
	.st1{display:inline;stroke:#000000;stroke-miterlimit:10;}
	.st2{display:inline;}
	.st3{fill:none;stroke:#FFFFFF;stroke-miterlimit:10;}
</style>
<g id="Layer_1_1_" class="st0">
	<rect id="XMLID_1_" class="st1" width="1069.7" height="1033.1"/>
</g>
<g id="Layer_2" class="st0">
	<g class="st2">
		<g>
			<g>
				<g>
					<circle class="st3" cx="414" cy="643.7" r="83.4"/>
				</g>
			</g>
		</g>
	</g>
</g>
<g id="Layer_3">
	<g id="รับสมัคร">
		<g id="document">
			<g>
				
					<rect x="459.5" y="456.6" transform="matrix(0.7071 -0.7071 0.7071 0.7071 -184.5447 478.9572)" class="st3" width="52.7" height="11.3"/>
				<polyline class="st3" points="463.2,476.9 460.7,487.3 471.2,484.9 				"/>
				<line class="st3" x1="494" y1="445.6" x2="502.2" y2="453.8"/>
			</g>
			<polygon class="st3" points="443.5,425.5 433.5,425.5 433.5,435.5 472.5,435.5 472.5,425.5 462.5,425.5 462.5,418.5 443.5,418.5 
							"/>
			<rect x="449.5" y="422.5" class="st3" width="7" height="2"/>
			<line class="st3" x1="435" y1="446.5" x2="473" y2="446.5"/>
			<line class="st3" x1="435" y1="453.5" x2="473" y2="453.5"/>
			<line class="st3" x1="435" y1="460.5" x2="473" y2="460.5"/>
			<line class="st3" x1="435" y1="467.5" x2="468" y2="467.5"/>
			<polyline class="st3" points="433,430.5 424.5,430.5 424.5,511.5 483.5,511.5 483.5,473 			"/>
			<polyline class="st3" points="483.5,455 483.5,430.5 472,430.5 			"/>
		</g>
	</g>
</g>
</svg>
