<?xml version="1.0" encoding="utf-8"?>
<!-- Generator: Adobe Illustrator 16.0.0, SVG Export Plug-In . SVG Version: 6.00 Build 0)  -->
<!DOCTYPE svg PUBLIC "-//W3C//DTD SVG 1.1//EN" "http://www.w3.org/Graphics/SVG/1.1/DTD/svg11.dtd">
<svg version="1.1" id="Layer_1" xmlns="http://www.w3.org/2000/svg" xmlns:xlink="http://www.w3.org/1999/xlink" x="0px" y="0px"
	 width="1366px" height="692px" viewBox="0 0 1366 692" enable-background="new 0 0 1366 692" xml:space="preserve">
<path d="M774.692,101.032H591.318c-11.554,0-20.948,9.4-20.948,20.948V442.88c0,3.731,2.143,7.131,5.509,8.741
	c1.334,0.631,2.762,0.947,4.18,0.947c2.17,0,4.323-0.731,6.078-2.148l96.869-78.058l96.852,78.058
	c2.912,2.348,6.915,2.802,10.264,1.201c3.366-1.61,5.509-5.01,5.509-8.741V121.98C795.63,110.427,786.241,101.032,774.692,101.032z
	 M776.248,422.629l-87.164-70.251c-3.543-2.868-8.608-2.868-12.157,0l-87.181,70.251V121.98c0-0.842,0.736-1.572,1.572-1.572
	h183.369c0.83,0,1.561,0.736,1.561,1.572V422.629z M733.527,223.893c-0.521-1.65-2.004-2.801-3.731-2.896l-31.583-1.738
	l-11.305-30.011c-0.608-1.622-1.96-2.535-3.914-2.685c-1.732,0.011-3.282,1.102-3.875,2.735l-10.911,30.094l-31.965,1.473
	c-1.733,0.078-3.239,1.234-3.765,2.884c-0.526,1.655,0.033,3.465,1.406,4.534l25.25,19.675l-8.471,30.863
	c-0.459,1.677,0.172,3.46,1.584,4.473c0.719,0.52,1.571,0.78,2.419,0.78c0.808,0,1.622-0.238,2.325-0.714l26.5-17.937l26.734,17.599
	c1.444,0.963,3.344,0.919,4.738-0.122c1.4-1.029,2.01-2.823,1.528-4.495l-8.863-30.725l24.508-19.26
	C733.494,227.341,734.053,225.542,733.527,223.893z"/>
</svg>
